<?xml version="1.0" encoding="utf-8"?>
<!-- Generator: Adobe Illustrator 22.1.0, SVG Export Plug-In . SVG Version: 6.00 Build 0)  -->
<svg version="1.1" id="Capa_1" xmlns="http://www.w3.org/2000/svg" xmlns:xlink="http://www.w3.org/1999/xlink" x="0px" y="0px"
	 viewBox="0 0 512 512" style="enable-background:new 0 0 512 512;" xml:space="preserve">
<style type="text/css">
	.st0{fill:#494949;}
</style>
<g>
	<g>
		<g>
			<path class="st0" d="M240.2,137.9c-1.9-1.9-4.4-2.9-7.1-2.9c-2.6,0-5.2,1.1-7.1,2.9c-1.9,1.9-2.9,4.4-2.9,7.1s1.1,5.2,2.9,7.1
				c1.9,1.9,4.4,2.9,7.1,2.9c2.6,0,5.2-1.1,7.1-2.9s2.9-4.4,2.9-7.1S242,139.7,240.2,137.9z"/>
		</g>
	</g>
	<g>
		<g>
			<path class="st0" d="M285.8,362.4c-1.9-1.9-4.4-2.9-7.1-2.9s-5.2,1.1-7.1,2.9c-1.9,1.9-2.9,4.4-2.9,7.1s1.1,5.2,2.9,7.1
				c1.9,1.9,4.4,2.9,7.1,2.9s5.2-1.1,7.1-2.9c1.9-1.9,2.9-4.4,2.9-7.1C288.7,366.8,287.6,364.2,285.8,362.4z"/>
		</g>
	</g>
	<g>
		<g>
			<path class="st0" d="M297,214.2c-5.5,0-10,4.5-10,10v63.6c0,5.5,4.5,10,10,10s10-4.5,10-10v-63.6
				C306.9,218.7,302.5,214.2,297,214.2z"/>
		</g>
	</g>
	<g>
		<g>
			<path class="st0" d="M272.4,284.2l-24.1-63.6c-1.5-3.9-5.2-6.5-9.3-6.5s-7.9,2.6-9.3,6.5l-24.1,63.6c-2,5.2,0.6,10.9,5.8,12.9
				c5.2,2,10.9-0.6,12.9-5.8l2.7-7H251l2.7,7c1.5,4,5.3,6.5,9.3,6.5c1.2,0,2.4-0.2,3.5-0.7C271.8,295.1,274.3,289.4,272.4,284.2z
				 M234.4,264.3l4.5-11.9l4.5,11.9H234.4z"/>
		</g>
	</g>
	<g>
		<g>
			<path class="st0" d="M478,443.9c-5.7,0-11.1,1.4-15.9,4l-26.7-26.7v-14.9c11.3-11.8,18.2-27.7,18.2-45.3c0-9.1-1.9-18-5.5-26.2
				c21-5.2,36.6-24.2,36.6-46.8v-89c0-25.4-19.7-46.3-44.7-48.1c1.1-4,1.6-8.1,1.6-12.3c0-8.5-2.3-16.5-6.3-23.4V90.8l26.7-26.7
				c4.7,2.5,10.1,4,15.9,4c18.7,0,34-15.2,34-34s-15.2-34-34-34s-34,15.2-34,34c0,5.7,1.4,11.2,4,15.9l-29.6,29.6
				c-1.9,1.9-2.9,4.4-2.9,7.1v9.7c-6.3-3.1-13.3-4.9-20.8-4.9c-4,0-8,0.5-11.9,1.5c-6-25.5-29-44.6-56.3-44.6
				c-31.9,0-57.8,25.9-57.8,57.8V170h-64.3c-2.7,0-5.2,1.1-7.1,2.9l-24.5,24.5c-1.9,1.9-2.9,4.4-2.9,7.1v103c0,2.7,1.1,5.2,2.9,7.1
				l24.5,24.5c1.9,1.9,4.4,2.9,7.1,2.9h18.7v63.5c0,21-17.1,38.1-38.1,38.1c-15,0-28.7-8.9-34.8-22.6c8.7-3.9,16.6-9.6,23-17
				c1.8,0.4,3.7,0.6,5.6,0.6c15.3,0,27.8-12.5,27.8-27.8s-12.5-27.8-27.8-27.8s-27.8,12.5-27.8,27.8c0,6,1.9,11.6,5.2,16.2
				c-8.5,8.7-20.2,13.7-32.5,13.7c-25.1,0-45.5-20.4-45.5-45.5c0-9.5,2.8-18.5,8.2-26.1c6-1.4,11.7-4,16.8-7.6
				c5.3,3.7,11.8,5.8,18.7,5.8c18.3,0,33.1-14.9,33.1-33.1c0-18.3-14.9-33.1-33.1-33.1s-33.1,14.9-33.1,33.1c0,4.1,0.7,8,2.1,11.6
				c-4.6,3-9.9,4.6-15.5,4.6C59.7,316.3,47,303.6,47,288v-89c0-15.6,12.7-28.3,28.3-28.3c12.9,0,23.9,8.8,27.2,20.6
				c-9.8,4.3-16.7,14.1-16.7,25.5c0,15.3,12.5,27.8,27.8,27.8s27.8-12.5,27.8-27.8c0-12.1-7.7-22.4-18.5-26.2
				c-2.7-15.6-13-28.7-26.9-35.3c-3.8-4.8-5.9-10.7-5.9-16.8c0-14.9,12.1-27.1,27.1-27.1c3.7,0,7.2,0.7,10.5,2.1
				c0.8,8,3.7,15.5,8.6,21.8c-1.1,3.2-1.7,6.5-1.7,10c0,17.3,14.1,31.4,31.4,31.4s31.4-14.1,31.4-31.4s-14.1-31.4-31.4-31.4
				c-6,0-11.7,1.7-16.5,4.7c-1.3-2.9-2-6.1-2-9.4v-1.3c0-0.4,0-0.8,0-1.1v-0.8c0-20.9,17-37.8,37.8-37.8s37.8,17,37.8,37.8
				c0,5.5,4.5,10,10,10s10-4.5,10-10c0-31.9-25.9-57.8-57.8-57.8C157.9,48.4,135,67.5,129,93c-3.9-1-7.8-1.5-11.9-1.5
				c-7.4,0-14.4,1.7-20.6,4.7v-9.6c0-2.7-1.1-5.2-2.9-7.1L64,50c2.5-4.7,4-10.2,4-15.9c0-18.7-15.2-34-34-34c-18.7,0-34,15.2-34,34
				s15.2,34,34,34c5.7,0,11.1-1.4,15.9-4l26.7,26.7v23.9c-4.1,7-6.5,15.1-6.5,23.8c0,4.2,0.6,8.4,1.6,12.3
				C46.7,152.7,27,173.6,27,199v89c0,22.6,15.6,41.6,36.6,46.8c-3.6,8.2-5.5,17.2-5.5,26.2c0,17.7,7,33.7,18.4,45.5v14.7l-26.7,26.7
				c-4.7-2.5-10.1-4-15.9-4c-18.7,0-34,15.2-34,34s15.2,34,34,34s34-15.2,34-34c0-5.7-1.4-11.2-4-15.9l29.6-29.6
				c1.9-1.9,2.9-4.4,2.9-7.1v-4.7c8.3,3.8,17.4,5.9,27.1,5.9c2.4,0,4.7-0.1,7-0.4l1.2,2.7c9.3,21,30.2,34.6,53.2,34.6
				c32,0,58.1-26.1,58.1-58.1v-63.5h64.3c2.7,0,5.2-1.1,7.1-2.9l24.5-24.5c1.9-1.9,2.9-4.4,2.9-7.1v-103c0-2.7-1.1-5.2-2.9-7.1
				l-24.5-24.5c-1.9-1.9-4.4-2.9-7.1-2.9h-18.7v-63.8c0-20.9,17-37.8,37.8-37.8s37.8,17,37.8,37.8v0.8c0,0.4,0,0.7,0,1.1v1.3
				c0,3.3-0.7,6.5-2,9.4c-4.8-3-10.4-4.7-16.5-4.7c-17.3,0-31.4,14.1-31.4,31.4s14.1,31.4,31.4,31.4s31.4-14.1,31.4-31.4
				c0-3.5-0.6-6.9-1.7-10c4.8-6.3,7.8-13.8,8.6-21.8c3.3-1.4,6.9-2.1,10.5-2.1c14.9,0,27.1,12.1,27.1,27.1c0,6.2-2.1,12.1-5.9,16.8
				C402,162,391.7,175,389,190.7c-10.8,3.8-18.5,14.1-18.5,26.2c0,15.3,12.5,27.8,27.8,27.8s27.8-12.5,27.8-27.8
				c0-11.4-6.9-21.2-16.7-25.5c3.3-11.9,14.3-20.6,27.2-20.6c15.6,0,28.3,12.7,28.3,28.3v89c0,15.6-12.7,28.3-28.3,28.3
				c-5.6,0-11-1.6-15.5-4.6c1.3-3.6,2.1-7.5,2.1-11.6c0-18.3-14.9-33.1-33.1-33.1s-33.1,14.9-33.1,33.1c0,18.3,14.9,33.1,33.1,33.1
				c6.9,0,13.4-2.2,18.7-5.8c5.1,3.6,10.8,6.1,16.8,7.6c5.4,7.7,8.2,16.6,8.2,26.1c0,25.1-20.4,45.5-45.5,45.5
				c-12.4,0-24-5-32.5-13.7c3.3-4.6,5.2-10.1,5.2-16.2c0-15.3-12.5-27.8-27.8-27.8s-27.8,12.5-27.8,27.8s12.5,27.8,27.8,27.8
				c1.9,0,3.8-0.2,5.6-0.6c6.4,7.4,14.2,13.1,23,17c-6.1,13.7-19.8,22.6-34.8,22.6c-21,0-38.1-17.1-38.1-38.1c0-5.5-4.5-10-10-10
				s-10,4.5-10,10c0,32,26.1,58.1,58.1,58.1c23,0,43.9-13.6,53.2-34.6l1.2-2.7c2.3,0.2,4.6,0.4,7,0.4c9.7,0,19-2.2,27.3-6v4.8
				c0,2.7,1.1,5.2,2.9,7.1L448,462c-2.5,4.7-4,10.2-4,15.9c0,18.7,15.2,34,34,34s34-15.2,34-34S496.8,443.9,478,443.9z M478,20.1
				c7.7,0,14,6.3,14,14s-6.3,14-14,14s-14-6.3-14-14C464,26.4,470.3,20.1,478,20.1z M178.7,368.9c4.3,0,7.8,3.5,7.8,7.8
				s-3.5,7.8-7.8,7.8s-7.8-3.5-7.8-7.8S174.4,368.9,178.7,368.9z M121.8,286.9c7.2,0,13.1,5.9,13.1,13.1s-5.9,13.1-13.1,13.1
				s-13.1-5.9-13.1-13.1C108.7,292.8,114.6,286.9,121.8,286.9z M113.5,209.1c4.3,0,7.8,3.5,7.8,7.8s-3.5,7.8-7.8,7.8
				s-7.8-3.5-7.8-7.8S109.2,209.1,113.5,209.1z M165.9,134.1c6.3,0,11.4,5.1,11.4,11.4s-5.1,11.4-11.4,11.4
				c-6.3,0-11.4-5.1-11.4-11.4C154.5,139.2,159.6,134.1,165.9,134.1z M34,48.1c-7.7,0-14-6.3-14-14s6.3-14,14-14s14,6.3,14,14
				S41.7,48.1,34,48.1z M34,491.9c-7.7,0-14-6.3-14-14c0-7.7,6.3-14,14-14s14,6.3,14,14C48,485.6,41.7,491.9,34,491.9z M303.2,190
				l18.6,18.6v94.7l-18.6,18.6h-94.7l-18.6-18.6v-94.7l18.6-18.6L303.2,190L303.2,190z M345.9,156.8c-6.3,0-11.4-5.1-11.4-11.4
				c0-6.3,5.1-11.4,11.4-11.4s11.4,5.1,11.4,11.4C357.2,151.7,352.1,156.8,345.9,156.8z M398.3,224.7c-4.3,0-7.8-3.5-7.8-7.8
				s3.5-7.8,7.8-7.8s7.8,3.5,7.8,7.8S402.6,224.7,398.3,224.7z M389.9,313.2c-7.2,0-13.1-5.9-13.1-13.1c0-7.2,5.9-13.1,13.1-13.1
				s13.1,5.9,13.1,13.1S397.2,313.2,389.9,313.2z M333.1,384.5c-4.3,0-7.8-3.5-7.8-7.8s3.5-7.8,7.8-7.8s7.8,3.5,7.8,7.8
				S337.4,384.5,333.1,384.5z M478,491.9c-7.7,0-14-6.3-14-14c0-7.7,6.3-14,14-14s14,6.3,14,14C492,485.6,485.7,491.9,478,491.9z"/>
		</g>
	</g>
</g>
</svg>
