<?xml version="1.0" encoding="utf-8"?>
<!-- Generator: Adobe Illustrator 22.1.0, SVG Export Plug-In . SVG Version: 6.00 Build 0)  -->
<svg version="1.1" id="Capa_1" xmlns="http://www.w3.org/2000/svg" xmlns:xlink="http://www.w3.org/1999/xlink" x="0px" y="0px"
	 viewBox="0 0 512 512" style="enable-background:new 0 0 512 512;" xml:space="preserve">
<style type="text/css">
	.st0{fill:#494949;}
</style>
<g>
	<g>
		<g>
			<path class="st0" d="M448.8,167.4h-36.9V94.7c0-12.4-4.9-24-13-32.5l-23.8-25c-20.2-20.9-22.8-26.7-34.8-32.6
				c-5.6-2.8-13-4.7-20.4-4.7H145.5c-25.9,0-47.1,21.1-47.1,47.1v253.7h-9.9c-15,0-27.1,12.2-27.1,27.1c0,7.5,3,14.2,7.9,19.1
				c-4.9,4.9-7.9,11.7-7.9,19.1c0,2.8,0.4,4.5,0.5,5.4C3,377.5-20.4,450.4,22.7,490c13,12,30.3,18.7,49,18c6.2,0,133.7,0,133.9,0
				c15,0,27.1-12.2,27.1-27.1c0-7.5-3-14.2-7.9-19.1c4.6-4.6,7.5-10.8,7.8-17.8h10.2v5.4c0,34.6,28.1,62.7,62.7,62.7h143.2
				c34.6,0,62.7-28.1,62.7-62.7V230C511.5,195.5,483.3,167.4,448.8,167.4z M384.8,70.8C384.8,70.8,384.8,70.8,384.8,70.8
				C384.8,70.8,384.8,70.8,384.8,70.8C384.8,70.8,384.8,70.8,384.8,70.8L384.8,70.8c0.1,0.1,0.1,0.1,0.1,0.1c0,0,0,0,0,0
				c0,0,0,0,0,0c0,0,0,0,0,0c0,0,0,0,0,0h-40.3V28.4C376.3,61.8,383.4,69.4,384.8,70.8z M88.6,316.9h117c6.1,0,11.1,5,11.1,11.1
				c0,6.1-5,11.1-11.1,11.1h-117c-6.1,0-11.1-5-11.1-11.1C77.5,321.8,82.5,316.9,88.6,316.9z M88.6,355.1h117
				c6.1,0,11.1,5,11.1,11.1c0,6.1-5,11.1-11.1,11.1h-80.8c-3.3-1.5-6.7-2.7-10.2-3.7c-5.2-1.4-10.6-2.2-16.1-2.4c-1.6,0-3.2,0-4.7,0
				h-15c-0.8-1.5-1.2-3.2-1.2-5.1C77.5,360,82.5,355.1,88.6,355.1z M216.6,404.3c0,6.1-5,11.1-11.1,11.1h-45
				c-3.1-8.1-7.7-15.6-13.7-22.1h58.7C211.7,393.3,216.6,398.3,216.6,404.3z M49.4,389.9c-4.9,4.6-9.3,10.2-12.7,16.2h-9.4
				C33.5,398.6,41.1,393.2,49.4,389.9z M18.8,421.2h11.7c-0.3,1.1-1.6,5.5-2.2,12.1H16C16.5,429.1,17.4,425.1,18.8,421.2z
				 M20.1,461.1c-1.8-4-3.1-8.3-3.8-12.7h12.3c2.2,12.5,2.3,10.3,2.9,12.7H20.1z M30.2,476.2c4.9,0,7.8,0,8.5,0
				c3,4.7,6.6,9.1,10.8,13.1C42.2,486.4,35.7,482,30.2,476.2z M98.8,492.9c-29.4,1.3-54.3-21.5-55.6-51c-2-47,54.1-74,89.4-41.6
				C167.4,432.2,146.2,490.9,98.8,492.9z M205.6,491.8h-64.9c7.2-6.1,13.1-13.6,17.3-22.1h47.6c6.1,0,11.1,5,11.1,11.1
				C216.6,486.9,211.7,491.8,205.6,491.8z M216.6,443.9c-0.7,5.5-5.3,9.7-11,9.7h-42.1c1.5-7,1.9-14.5,1-22.1h41.1
				C212.4,431.5,217.4,437.6,216.6,443.9z M242.9,427.8h-14.5c-1-1.6-2.2-3-3.5-4.4c10.5-10.6,10.5-27.6,0-38.2
				c4.9-4.9,7.9-11.7,7.9-19.1c0-7.5-3-14.2-7.9-19.1c16.9-17.1,4.8-46.2-19.3-46.2h-91V47.1c0-17.1,13.9-31,31-31h183.1v63
				c0,4.4,3.6,8,8,8h58.2c1.7,6.5,0.6,4.4,1,80.2h-90.3c-34.6,0-62.7,28.1-62.7,62.7L242.9,427.8L242.9,427.8z M496.4,449.3
				c0,26.2-21.3,47.6-47.6,47.6H305.5c-26.2,0-47.6-21.3-47.6-47.6V230c0-26.2,21.4-47.6,47.6-47.6h143.2
				c26.2,0,47.6,21.3,47.6,47.6L496.4,449.3L496.4,449.3z"/>
		</g>
	</g>
	<g>
		<g>
			<path class="st0" d="M448.3,199.5H306.1c-14,0-25.3,11.3-25.3,25.3v27.6c0,14,11.3,25.3,25.3,25.3h27.4c4.2,0,7.5-3.4,7.5-7.5
				s-3.4-7.5-7.5-7.5h-27.4c-5.6,0-10.2-4.6-10.2-10.2v-27.6c0-5.6,4.6-10.2,10.2-10.2h142.2c5.6,0,10.2,4.6,10.2,10.2v27.6
				c0,5.6-4.6,10.2-10.2,10.2h-82.3c-4.2,0-7.5,3.4-7.5,7.5s3.4,7.5,7.5,7.5h82.3c14,0,25.3-11.4,25.3-25.3v-27.6
				C473.6,210.9,462.2,199.5,448.3,199.5z"/>
		</g>
	</g>
	<g>
		<g>
			<path class="st0" d="M322.3,358.4h-25.8c-8.7,0-15.8,7.1-15.8,15.8V400c0,8.7,7.1,15.8,15.8,15.8h25.8c8.7,0,15.8-7.1,15.8-15.8
				v-25.8C338.1,365.5,331,358.4,322.3,358.4z M323,400c0,0.4-0.3,0.7-0.7,0.7h-25.8c-0.4,0-0.7-0.3-0.7-0.7v-25.8
				c0-0.4,0.3-0.7,0.7-0.7h25.8c0.4,0,0.7,0.3,0.7,0.7V400z"/>
		</g>
	</g>
	<g>
		<g>
			<path class="st0" d="M458.6,291.1h-25.8c-8.7,0-15.8,7.1-15.8,15.8v25.8c0,8.7,7.1,15.8,15.8,15.8h25.8c8.7,0,15.8-7.1,15.8-15.8
				v-25.8C474.4,298.1,467.3,291.1,458.6,291.1z M459.3,332.6c0,0.4-0.3,0.7-0.7,0.7h-25.8c-0.4,0-0.7-0.3-0.7-0.7
				c0.3-25.5-0.7-26.5,0.7-26.5h25.8c0.4,0,0.7,0.3,0.7,0.7V332.6z"/>
		</g>
	</g>
	<g>
		<g>
			<path class="st0" d="M322.3,291.1h-25.8c-8.7,0-15.8,7.1-15.8,15.8v25.8c0,8.7,7.1,15.8,15.8,15.8h25.8c8.7,0,15.8-7.1,15.8-15.8
				v-25.8C338.1,298.1,331,291.1,322.3,291.1z M323,332.6c0,0.4-0.3,0.7-0.7,0.7h-25.8c-0.4,0-0.7-0.3-0.7-0.7v-25.8
				c0-0.4,0.3-0.7,0.7-0.7h25.8c0.4,0,0.7,0.3,0.7,0.7V332.6z"/>
		</g>
	</g>
	<g>
		<g>
			<path class="st0" d="M334.1,427.8c-2.9-3.3-7.1-5.3-11.8-5.3h-25.8c-4.7,0-8.9,2.1-11.8,5.3c-5.5,6.1-3.6,12.8-4,16.1V464
				c0,8.7,7.1,15.8,15.8,15.8h25.8c8.7,0,15.8-7.1,15.8-15.8v-20.1C337.7,440.7,339.6,434,334.1,427.8z M322.3,464.7
				c-25.5-0.3-26.5,0.7-26.5-0.7c0-27.3-0.3-26.5,0.7-26.5h25.8c1.2,0,0.5,1.7,0.7,6.3C323,443.9,323.7,464.7,322.3,464.7z"/>
		</g>
	</g>
	<g>
		<g>
			<path class="st0" d="M454.6,358.4h-17.8c-10.9,0-19.8,8.9-19.8,19.8v80c0,11.9,9.7,21.6,21.6,21.6h14.1
				c11.9,0,21.6-9.7,21.6-21.6v-80C474.4,367.3,465.5,358.4,454.6,358.4z M452.8,464.7h-14.1c-3.6,0-6.5-2.9-6.5-6.5v-80
				c0-2.6,2.1-4.7,4.7-4.7h17.8c2.6,0,4.7,2.1,4.7,4.7v80l0,0C459.3,461.8,456.4,464.7,452.8,464.7z"/>
		</g>
	</g>
	<g>
		<g>
			<path class="st0" d="M194.6,219c-9.2-3.4-15.8-5.8-15.8-14.3c0-7.8,5.2-11.7,15.3-11.7c10.8,0,13.7,4.8,17.5,4.8
				c4.1,0,6.4-4.4,6.4-7.4c0-6.3-10.2-9.4-19.4-10.2v-5.7c0-3.9-3.2-7.1-7.1-7.1s-7.1,3.2-7.1,7.1v6.6c-12.5,3-19.4,11.6-19.4,24.4
				c0,17.6,12.9,22.4,23.3,26.3c10.2,3.8,18.2,6.8,18.2,18.4c0,9.6-5.3,14.4-15.8,14.4c-15.4,0-15.5-10.4-21.4-10.4
				c-3.6,0-6.6,4.1-6.6,7.4c0,5.9,8.8,13.8,21.7,15.8v5.5c0,3.9,3.2,7.1,7.1,7.1s7.1-3.2,7.1-7.1v-5.6c13.8-2.6,21.7-12.7,21.7-27.9
				C220.3,228.5,206.1,223.2,194.6,219z"/>
		</g>
	</g>
	<g>
		<g>
			<path class="st0" d="M401,426.9c-2.8-2.7-6.7-4.4-10.9-4.4h-25.8c-4.7,0-8.9,2.1-11.8,5.3c-5.5,6.2-3.6,12.8-4,16.1V464
				c0,8.7,7.1,15.8,15.8,15.8h25.8c8.7,0,15.8-7.1,15.8-15.8v-25.8C405.8,433.8,404,429.8,401,426.9z M390.1,464.7
				c-25.5-0.3-26.5,0.7-26.5-0.7v-25.8c0-0.4,0.3-0.7,0.7-0.7h25.8c0.4,0,0.7,0.3,0.7,0.7C390.4,463.8,391.4,464.7,390.1,464.7z"/>
		</g>
	</g>
	<g>
		<g>
			<path class="st0" d="M390.1,291.1h-25.8c-8.7,0-15.8,7.1-15.8,15.8v25.8c0,8.7,7.1,15.8,15.8,15.8h25.8c2,0,4-0.4,5.7-1.1
				c5.9-2.3,10-8,10-14.7v-25.8C405.8,298.1,398.7,291.1,390.1,291.1z M390.1,333.3h-25.8c-0.4,0-0.7-0.3-0.7-0.7v-25.8
				c0-1.4,0.9-0.4,26.5-0.7c0.4,0,0.7,0.3,0.7,0.7v25.8l0,0C390.7,333,390.4,333.3,390.1,333.3z"/>
		</g>
	</g>
	<g>
		<g>
			<path class="st0" d="M395.8,359.5c-1.8-0.7-3.7-1.1-5.7-1.1h-25.8c-8.7,0-15.8,7.1-15.8,15.8V400c0,8.7,7.1,15.8,15.8,15.8h25.8
				c8.7,0,15.8-7.1,15.8-15.8v-25.8C405.8,367.5,401.7,361.8,395.8,359.5z M390.7,400c0,0.4-0.3,0.7-0.7,0.7h-25.8
				c-0.4,0-0.7-0.3-0.7-0.7v-25.8c0-0.4,0.3-0.7,0.7-0.7h25.8c0.4,0,0.7,0.3,0.7,0.7V400z"/>
		</g>
	</g>
	<g>
		<g>
			<path class="st0" d="M346.5,103h-18.9c-4.2,0-7.5,3.4-7.5,7.5c0,4.2,3.4,7.5,7.5,7.5h18.9c4.2,0,7.5-3.4,7.5-7.5
				C354.1,106.4,350.7,103,346.5,103z"/>
		</g>
	</g>
	<g>
		<g>
			<path class="st0" d="M297.4,103H163.7c-4.2,0-7.5,3.4-7.5,7.5c0,4.2,3.4,7.5,7.5,7.5h133.7c4.2,0,7.5-3.4,7.5-7.5
				C305,106.4,301.6,103,297.4,103z"/>
		</g>
	</g>
	<g>
		<g>
			<path class="st0" d="M187.7,140.5h-24c-4.2,0-7.5,3.4-7.5,7.5c0,4.2,3.4,7.5,7.5,7.5h24c4.2,0,7.5-3.4,7.5-7.5
				S191.8,140.5,187.7,140.5z"/>
		</g>
	</g>
	<g>
		<g>
			<path class="st0" d="M346.5,140.5H217.8c-4.2,0-7.5,3.4-7.5,7.5c0,4.2,3.4,7.5,7.5,7.5h128.7c4.2,0,7.5-3.4,7.5-7.5
				C354.1,143.9,350.7,140.5,346.5,140.5z"/>
		</g>
	</g>
	<g>
		<g>
			<path class="st0" d="M92.2,425.2c0-1.9,0.7-2.4,1.4-2.8c2-1.1,6.7-1.5,10.9,0.7c1.1,0.6,2.4,1.2,4.1,1.2
				c7.4,0,13.3-13.8-4.4-16.9V407c0-4.2-3.4-7.6-7.6-7.6s-7.6,3.4-7.6,7.6v1.5c-7.4,2.7-11.7,8.8-11.7,17.2
				c0,12.9,9.3,16.4,16.2,18.9c6.5,2.4,8.8,3.5,8.8,7.9c0,2.8-0.7,5.3-6.2,5.3c-7.9,0-6.9-6.2-12.8-6.2c-4.2,0-7.3,4.1-7.3,7.8
				c0,5.2,5.4,10.2,13,12.2v0.6c0,4.2,3.4,7.6,7.6,7.6s7.6-3.4,7.6-7.6v-0.8c8.2-2.6,13-9.7,13-19.4
				C117.2,429.1,92.2,432.6,92.2,425.2z"/>
		</g>
	</g>
</g>
</svg>
