<?xml version="1.0" encoding="utf-8"?>
<!-- Generator: Adobe Illustrator 22.1.0, SVG Export Plug-In . SVG Version: 6.00 Build 0)  -->
<svg version="1.1" id="Capa_1" xmlns="http://www.w3.org/2000/svg" xmlns:xlink="http://www.w3.org/1999/xlink" x="0px" y="0px"
	 viewBox="0 0 512 512" style="enable-background:new 0 0 512 512;" xml:space="preserve">
<style type="text/css">
	.st0{fill:#494949;}
</style>
<g>
	<path class="st0" d="M89.6,55.5c-21.2,0-38.4,17.2-38.4,38.4s17.2,38.4,38.4,38.4S128,115,128,93.9S110.8,55.5,89.6,55.5z
		 M89.6,115.2c-11.8,0-21.3-9.6-21.3-21.3s9.6-21.3,21.3-21.3s21.3,9.6,21.3,21.3S101.4,115.2,89.6,115.2z"/>
	<circle class="st0" cx="426.7" cy="81.1" r="8.5"/>
	<circle class="st0" cx="392.5" cy="81.1" r="8.5"/>
	<circle class="st0" cx="443.7" cy="106.7" r="8.5"/>
	<circle class="st0" cx="409.6" cy="106.7" r="8.5"/>
	<circle class="st0" cx="358.4" cy="81.1" r="8.5"/>
	<circle class="st0" cx="375.5" cy="106.7" r="8.5"/>
	<circle class="st0" cx="324.3" cy="81.1" r="8.5"/>
	<circle class="st0" cx="341.3" cy="106.7" r="8.5"/>
	<circle class="st0" cx="290.1" cy="81.1" r="8.5"/>
	<circle class="st0" cx="307.2" cy="106.7" r="8.5"/>
	<path class="st0" d="M512,144.1V43.6c0-21.7-17.6-39.3-39.3-39.3H39.3C17.6,4.3,0,21.9,0,43.6v100.5c0,12.5,6,23.6,15.2,30.8
		C6,182.1,0,193.2,0,205.7v100.5c0,12.5,6,23.6,15.2,30.8C6,344.3,0,355.3,0,367.9v100.5c0,21.7,17.6,39.3,39.3,39.3h433.3
		c21.7,0,39.3-17.6,39.3-39.3V367.9c0-12.5-6-23.6-15.2-30.8c9.2-7.2,15.2-18.3,15.2-30.8V205.7c0-12.5-6-23.6-15.2-30.8
		C506,167.7,512,156.7,512,144.1z M494.9,367.9v100.5c0,12.3-10,22.3-22.3,22.3H39.3c-12.3,0-22.3-10-22.3-22.2V367.9
		c0-12.3,10-22.3,22.3-22.3h433.3C484.9,345.6,494.9,355.6,494.9,367.9z M494.9,205.7v100.5c0,12.3-10,22.3-22.3,22.3H39.3
		c-12.3,0-22.3-10-22.3-22.2V205.7c0-12.3,10-22.3,22.3-22.3h433.3C484.9,183.5,494.9,193.5,494.9,205.7z M39.3,166.4
		c-12.3,0-22.3-10-22.3-22.3V43.6c0-12.3,10-22.3,22.3-22.3h433.3c12.3,0,22.3,10,22.3,22.3v100.5c0,12.3-10,22.3-22.3,22.3
		L39.3,166.4L39.3,166.4z"/>
	<path class="st0" d="M89.6,294.4c21.2,0,38.4-17.2,38.4-38.4c0-21.2-17.2-38.4-38.4-38.4S51.2,234.8,51.2,256
		C51.2,277.2,68.4,294.4,89.6,294.4z M89.6,234.7c11.8,0,21.3,9.6,21.3,21.3c0,11.8-9.6,21.3-21.3,21.3s-21.3-9.6-21.3-21.3
		C68.3,244.2,77.8,234.7,89.6,234.7z"/>
	<circle class="st0" cx="426.7" cy="243.2" r="8.5"/>
	<circle class="st0" cx="392.5" cy="243.2" r="8.5"/>
	<circle class="st0" cx="443.7" cy="268.8" r="8.5"/>
	<circle class="st0" cx="409.6" cy="268.8" r="8.5"/>
	<circle class="st0" cx="358.4" cy="243.2" r="8.5"/>
	<circle class="st0" cx="375.5" cy="268.8" r="8.5"/>
	<circle class="st0" cx="324.3" cy="243.2" r="8.5"/>
	<circle class="st0" cx="341.3" cy="268.8" r="8.5"/>
	<circle class="st0" cx="290.1" cy="243.2" r="8.5"/>
	<circle class="st0" cx="307.2" cy="268.8" r="8.5"/>
	<path class="st0" d="M89.6,456.5c21.2,0,38.4-17.2,38.4-38.4c0-21.2-17.2-38.4-38.4-38.4S51.2,397,51.2,418.1
		C51.2,439.3,68.4,456.5,89.6,456.5z M89.6,396.8c11.8,0,21.3,9.6,21.3,21.3s-9.6,21.3-21.3,21.3s-21.3-9.6-21.3-21.3
		S77.8,396.8,89.6,396.8z"/>
	<circle class="st0" cx="426.7" cy="405.3" r="8.5"/>
	<circle class="st0" cx="392.5" cy="405.3" r="8.5"/>
	<circle class="st0" cx="443.7" cy="430.9" r="8.5"/>
	<circle class="st0" cx="409.6" cy="430.9" r="8.5"/>
	<circle class="st0" cx="358.4" cy="405.3" r="8.5"/>
	<circle class="st0" cx="375.5" cy="430.9" r="8.5"/>
	<circle class="st0" cx="324.3" cy="405.3" r="8.5"/>
	<circle class="st0" cx="341.3" cy="430.9" r="8.5"/>
	<circle class="st0" cx="290.1" cy="405.3" r="8.5"/>
	<circle class="st0" cx="307.2" cy="430.9" r="8.5"/>
</g>
</svg>
