<?xml version="1.0" encoding="utf-8"?>
<!-- Generator: Adobe Illustrator 22.1.0, SVG Export Plug-In . SVG Version: 6.00 Build 0)  -->
<svg version="1.1" id="Capa_1" xmlns="http://www.w3.org/2000/svg" xmlns:xlink="http://www.w3.org/1999/xlink" x="0px" y="0px"
	 viewBox="0 0 512 512" style="enable-background:new 0 0 512 512;" xml:space="preserve">
<style type="text/css">
	.st0{fill:#494949;}
</style>
<g>
	<g id="c43_terminal">
		<path class="st0" d="M475.4,36.6H36.6C16.4,36.6,0,52.9,0,73.1v365.7c0,20.2,16.4,36.6,36.6,36.6h438.8
			c20.2,0,36.6-16.4,36.6-36.6V73.1C512,52.9,495.5,36.6,475.4,36.6z M118.9,64c10.1,0,18.3,8.1,18.3,18.3
			c0,10.1-8.2,18.2-18.3,18.2c-10.1,0-18.3-8.1-18.3-18.2C100.6,72.2,108.7,64,118.9,64z M64,64c10.1,0,18.3,8.1,18.3,18.3
			c0,10.1-8.2,18.2-18.3,18.2s-18.3-8.1-18.3-18.2C45.7,72.2,53.9,64,64,64z M475.4,438.9H36.6V128.4h438.8V438.9z"/>
		<polygon class="st0" points="205,203.5 87.5,149.8 87.5,175.7 178.3,214.6 178.3,215 87.5,253.8 87.5,279.7 205,226 		"/>
		<rect x="260.3" y="202.5" class="st0" width="64" height="24.7"/>
	</g>
	<g id="Capa_1_86_">
	</g>
</g>
</svg>
