<?xml version="1.0" encoding="utf-8"?>
<!-- Generator: Adobe Illustrator 22.1.0, SVG Export Plug-In . SVG Version: 6.00 Build 0)  -->
<svg version="1.1" id="Capa_1" xmlns="http://www.w3.org/2000/svg" xmlns:xlink="http://www.w3.org/1999/xlink" x="0px" y="0px"
	 viewBox="0 0 512 512" style="enable-background:new 0 0 512 512;" xml:space="preserve">
<style type="text/css">
	.st0{fill:#494949;}
</style>
<g>
	<g>
		<g>
			<path class="st0" d="M469.3,42.7H42.7C19.1,42.7,0,61.8,0,85.3v341.3c0,23.5,19.1,42.7,42.7,42.7h426.7
				c23.5,0,42.7-19.1,42.7-42.7V85.3C512,61.8,492.9,42.7,469.3,42.7z M234.7,448h-192c-11.8,0-21.3-9.6-21.3-21.3v-128h213.3
				L234.7,448L234.7,448z M490.7,426.7c0,11.8-9.6,21.3-21.3,21.3H256V298.7h234.7V426.7z M490.7,277.3H245.3h-224v-128h469.3
				L490.7,277.3L490.7,277.3z M490.7,128H21.3V85.3c0-11.8,9.6-21.3,21.3-21.3h426.7c11.8,0,21.3,9.6,21.3,21.3V128z"/>
			<path class="st0" d="M53.3,341.3h149.3c5.9,0,10.7-4.8,10.7-10.7s-4.8-10.7-10.7-10.7H53.3c-5.9,0-10.7,4.8-10.7,10.7
				C42.7,336.6,47.4,341.3,53.3,341.3z"/>
			<path class="st0" d="M53.3,384h149.3c5.9,0,10.7-4.8,10.7-10.7s-4.8-10.7-10.7-10.7H53.3c-5.9,0-10.7,4.8-10.7,10.7
				C42.7,379.2,47.4,384,53.3,384z"/>
			<path class="st0" d="M53.3,426.7h85.3c5.9,0,10.7-4.8,10.7-10.7s-4.8-10.7-10.7-10.7H53.3c-5.9,0-10.7,4.8-10.7,10.7
				C42.7,421.9,47.4,426.7,53.3,426.7z"/>
			<circle class="st0" cx="53.3" cy="96" r="10.7"/>
			<circle class="st0" cx="96" cy="96" r="10.7"/>
		</g>
	</g>
</g>
</svg>
