<svg id="Layer_1" data-name="Layer 1" xmlns="http://www.w3.org/2000/svg" viewBox="0 0 1000 1000"><defs><style>.cls-1{fill:#596063;}.cls-2{fill:#a83b3f;}.cls-3{fill:#a83a3e;}.cls-4{fill:#a83b3e;}.cls-5{fill:#aa3d41;}.cls-6{fill:#a73d40;}.cls-7{fill:#a73c3f;}.cls-8{fill:#a83d41;}.cls-9{fill:snow;}.cls-10{fill:#ab3f43;}.cls-11{fill:#a84246;}.cls-12{fill:#fbfbfb;}</style></defs><title>Artboard 1 copy</title><path class="cls-1" d="M192.43,423c-2.68-1.07-4.91-2.35-6.45-4.81-1.78-2.84-3.92-5.47-5.8-8.26-.77-1.14-1.35-1.41-2.61-.57-3.65,2.43-7.38,4.76-11.14,7-1.3.79-1.71,1.52-.78,2.86.63.92,1,2,1.62,2.95,3.15,4.28,3.47,9.11,2.81,14.32-2.38-.83-4.52-1.82-6-4.1-1.88-2.9-4-5.62-6-8.47-.75-1.09-1.31-1.55-2.62-.65-2.69,1.87-5.47,3.59-8.28,5.26-1.25.74-1.44,1.44-.69,2.66.89,1.42,1.42,3.09,2.42,4.42,3.07,4.09,2.73,8.72,2.46,13.68-2.56-1.07-4.78-2.11-6.28-4.48-1.91-3-4.17-5.76-6.13-8.72-.9-1.35-1.62-1.41-2.91-.55q-5.15,3.4-10.43,6.59c-1.12.68-1.36,1.26-.67,2.41,1.09,1.84,1.83,3.94,3.11,5.63,2.67,3.54,2.32,7.54,2.3,11.55,0,1.12-.34,1.67-1.46,1.06-1.7-.92-3.46-1.68-4.62-3.47-2.15-3.28-4.57-6.38-6.79-9.63-.85-1.24-1.54-1.52-2.89-.61-3.42,2.29-6.9,4.47-10.43,6.59-1.16.7-1.28,1.33-.63,2.44,1,1.6,1.62,3.4,2.71,4.9,3.08,4.24,3.25,9,2.68,14.08-2.27-.68-4.28-1.58-5.69-3.63-2.33-3.39-4.81-6.68-7.13-10.08-.88-1.28-1.51-1.78-3-.71-3.21,2.24-6.55,4.32-10,6.29-1.53.88-1.64,1.65-.78,3.06,1.12,1.83,1.86,3.91,3.1,5.64,2.58,3.61,2.67,7.64,2.5,11.78-.05,1.33-.21,2-1.73,1.18a11,11,0,0,1-4.49-3.62c-2.27-3.43-4.81-6.68-7.11-10.09-.91-1.35-1.53-1.64-3-.66-4.56,2.95-4.61,2.86-8.91-.3-3.47-2.54-6.7-5.52-10.45-7.55-9.68-5.23-13.4-14.93-18.57-23.58-.89-1.49.36-1.73,1.09-2.31,2.72-2.16,3.37-4.61,2-7.66-1.73-3.88-4.54-4.86-8.07-2.54-1.42.93-1.93,1-2.38-.77-.73-2.89-2.83-6-2.19-8.49s4.49-3.22,7-4.69q76.85-45.48,153.73-90.91c3.34-2,3.35-2,5.41,1.16,6,9.14,12,18.29,18.06,27.4a15.86,15.86,0,0,1,2.79,6.89q1.38,10.56,3.15,21.07c.3,1.73-.24,2.48-1.6,3.33-5.27,3.26-5.49,3.46-2.26,8.69,2.26,3.66,2,7.44,2,11.33,0,1.31-.51,1.42-1.52.88-1.73-.92-3.44-1.74-4.59-3.52-1.72-2.67-3.74-5.15-5.49-7.8-.8-1.22-1.42-1.35-2.63-.54q-4.78,3.19-9.73,6.14c-1.24.74-1.5,1.45-.68,2.67.63.92,1,2,1.63,2.94A19.18,19.18,0,0,1,192.43,423Zm9.18-62.86a28.15,28.15,0,0,0-3-4.65c-1-1-2,.42-2.88.92q-62,36.1-124,72.27c-9,5.27-18.06,10.57-27.14,15.77-1.57.9-2,1.69-.78,3.13a8.47,8.47,0,0,1,.72,1.2c2,3.34,2,3.35,5.25,1.44l103.55-61.13q23-13.61,46.09-27.23C200.18,361.46,201.15,361.22,201.61,360.18Zm-41.08,59.66c.81-3.78,1-7.29-1.76-10.35a20,20,0,0,1-1.81-2.83c-3.54-5.65-3.51-5.61-9-1.93-1.18.8-1.53,1.34-.57,2.59A50.35,50.35,0,0,1,152,414C153.86,417.55,157.1,418.69,160.53,419.84ZM96.24,458.38c0-2.49,1.19-4.95,0-7.19-1.92-3.51-4.2-6.82-6.28-10.23-.55-.89-1-1-2-.49-6.35,3.25-6.37,3.21-2.37,9.07a18.71,18.71,0,0,1,1.56,2.31C88.94,455.6,92.27,457.21,96.24,458.38ZM75.91,470.45c0-2.54,1.26-5,0-7.24-2-3.5-4.23-6.83-6.33-10.26-.48-.77-.9-.92-1.79-.52-6.18,2.79-6.4,3.51-2.58,9.09a21.22,21.22,0,0,1,1.87,2.79C68.83,468,72.19,469.2,75.91,470.45Zm106.18-69.64c.57-1.65-.37-3.32-1.48-5-1.63-2.48-3.27-5-4.7-7.58-.91-1.67-1.67-1.68-3.19-.7-5.21,3.36-5.25,3.29-1.7,8.49.84,1.23,1.78,2.4,2.51,3.69a8.85,8.85,0,0,0,4.8,4C182,405.12,182,405.23,182.09,400.81ZM140.6,431.75c-.52-2.52,1-5.13-.54-7.61-1.94-3.08-3.92-6.13-5.75-9.26-.75-1.29-1.33-1.36-2.59-.6-5.7,3.41-5.66,3.32-2,8.82C132.33,427.09,134.78,431.2,140.6,431.75Zm62.32-44.52c-.1-.91.39-2.14-.32-3.28-2.08-3.32-4.17-6.63-6.22-10-.53-.86-1-1.07-2-.58-6.27,3-6.37,3.27-2.5,8.9a41.63,41.63,0,0,1,2.51,3.71,8.89,8.89,0,0,0,4.77,4C202.8,391.51,202.76,391.59,202.92,387.23Zm-82.55,52.83c-.07-1.06.38-2.28-.34-3.42q-3.14-5-6.23-10c-.42-.66-.83-1.27-1.74-.65-1.93,1.3-4.55,2.19-5.56,4-.78,1.39,1.74,3.16,2.71,4.81.85,1.44,2,2.73,2.79,4.19a8.48,8.48,0,0,0,4.39,3.65C120.24,444.25,120.22,444.31,120.37,440.06Z"/><path class="cls-2" d="M779.37,525.44c-10.84,6.94-25.61-.64-26.17-13.44-.36-8.12-.42-16.3,0-24.41.66-11.89,11.88-16.57,20.15-15.61,2.47.28,4.36,2,6.62,3.87-.48-2.67.87-2.93,2.76-2.81,2.33.14,4.68.08,7,0,1.35,0,2,.26,2,1.83-.06,19.09.24,38.18-.16,57.26-.25,12.52-16.57,21.37-27.65,15.33A21.7,21.7,0,0,1,752.6,532c-.36-1.86-.11-3.12,2.3-2.77a24.54,24.54,0,0,0,3.64,0c1.78,0,3.74-.42,5.28.19,1.74.7.75,3,1.33,4.53,1.25,3.28,3.85,5,7.68,4.84a6.72,6.72,0,0,0,6.63-5.41A14.15,14.15,0,0,0,779.37,525.44Zm-14.44-25.09c0,3.27-.16,6.55,0,9.81.31,5.14,3.36,7.81,8.18,7.44,3.49-.27,5.89-2.65,6.23-7.08a165,165,0,0,0,0-21.56c-.21-3.84-2.91-6.09-6.65-6.28-4.63-.24-7.48,2.44-7.75,7.59C764.78,493.62,764.92,497,764.93,500.35Z"/><path class="cls-2" d="M184.3,489c0,6.92-.11,13.84,0,20.76.11,5,2.72,7.72,6.95,7.88,3.86.15,6.13-1.53,7.09-5.34s.48-8,.49-12c0-1.85.31-2.77,2.41-2.54,3,.34,7-1.29,8.88.64,1.74,1.78.39,5.7.5,8.67.16,4.82,0,9.55-2.95,13.72-5.17,7.47-13.35,9.48-22.75,7.06-7.77-2-12.45-9-12.46-17.58q0-20.91,0-41.82c0-11.08,7.35-18.33,18.52-18.37,9.67,0,16.43,4.39,18.85,12.34,1.17,3.84.75,7.79.78,11.71,0,5.55,0,5.55-5.55,5.55-6.15,0-6.18,0-6.17-6a24,24,0,0,0-1.11-8.3,6.71,6.71,0,0,0-7-4.85c-3.22.18-5,1.77-6.06,5.26a18.47,18.47,0,0,0-.47,5.28c0,6,0,12,0,18Z"/><path class="cls-2" d="M567.22,475.1c3.53-2.62,7.24-3,11-2.78,8.75.53,15.11,7.42,15.29,17,.23,12.06,0,24.13.11,36.2,0,1.63-.57,2.11-2.12,2a60.71,60.71,0,0,0-7,0c-2,.13-2.55-.5-2.53-2.49.09-10.29.06-20.58,0-30.87a19.68,19.68,0,0,0-.57-6.39c-1.31-3.91-4.46-5.73-8.82-5-3.65.58-5.35,2.73-5.33,7,.06,11.6.1,23.2.3,34.8,0,2.23-.36,3.25-2.83,3a41,41,0,0,0-7,0c-2,.14-2.53-.56-2.52-2.51.08-13.1,0-26.19,0-39.29,0-10.57,0-21.14,0-31.71,0-2,.42-2.9,2.63-2.69a53.71,53.71,0,0,0,7.29.1c1.79-.09,2.18.62,2.16,2.28C567.17,460.7,567.22,467.67,567.22,475.1Z"/><path class="cls-3" d="M305.2,451.82c3.56-1,7.17-.23,10.75-.25,1.47,0,.92,1.4.93,2.2,0,7,0,14,0,21.4,3.36-2.61,7.06-3,10.79-2.87,8.64.37,15.37,7.38,15.51,16.43.18,12.24,0,24.5.1,36.74,0,1.6-.48,2.14-2.07,2-3-.16-6.81.94-8.7-.52s-.6-5.59-.64-8.53c-.1-8,0-15.9-.05-23.84a41,41,0,0,0-.37-5.31c-.61-4.49-3.34-6.77-7.83-6.65s-6.74,2.41-6.71,7.15c.05,9.26.22,18.52.33,27.77,0,2.71.06,5.43.06,8.14,0,.71.19,1.74-.89,1.7-3.75-.15-7.55.71-11.26-.44.72-.8.43-1.78.43-2.68q0-34.9,0-69.79C305.6,453.61,305.88,452.64,305.2,451.82Z"/><path class="cls-2" d="M243.81,525.49c-4.88,4.13-13.24,4.2-19.61.34-6.88-4.16-9.71-10-8.1-16.56,2.09-8.49,8.43-14.15,16.56-14.74a24.79,24.79,0,0,1,9.43.9c1.57.5,2.08,0,1.94-1.49a38.52,38.52,0,0,0-.48-5.29,6.44,6.44,0,0,0-6.26-5.43c-3.89-.27-5.73.72-7.13,4.42a3,3,0,0,1-3.53,2.24,65.38,65.38,0,0,0-7,0c-1.65.07-2.06-.47-1.87-2.12.78-6.79,5.67-13,12.47-14.71,7.57-1.86,14.89-1.44,20.76,4.74a16.12,16.12,0,0,1,4.72,11.34c0,12.06,0,24.12.06,36.18,0,1.68-.43,2.34-2.19,2.23a65.66,65.66,0,0,0-7.29,0C244.77,527.63,243.83,527.25,243.81,525.49Zm.19-14a8.22,8.22,0,0,0-8.52-7.92c-4.81.35-9.17,4.92-8.51,9a5.44,5.44,0,0,0,.81,2c2.53,3.72,8.76,5.07,12.53,2.65C242.52,515.85,244.13,514,244,511.52Z"/><path class="cls-3" d="M818.13,500.24c0-3.92-.19-7.86,0-11.78a17.08,17.08,0,0,1,15.28-16,24.17,24.17,0,0,1,11.36.91c6.88,2.55,11.14,8.84,11.33,16.79.12,4.49,0,9,.07,13.48,0,1.85-.52,2.4-2.37,2.37-7.21-.09-14.41,0-21.62-.08-2.19,0-2.68.66-2.48,2.76.6,6.29,2.4,8.4,8.14,9,3.82.4,5-.3,5.94-4.19.45-2,1.24-2.61,3.2-2.46a43.2,43.2,0,0,0,6.73,0c2.16-.18,2.48.72,2.21,2.6a17.11,17.11,0,0,1-8,12.28c-7.53,5-19.45,3.45-25.49-3.21a15.35,15.35,0,0,1-4.31-10.1c-.1-4.11,0-8.23,0-12.35Zm19.36-4.05c2-.26,5.2,1.1,6.56-.5,1.55-1.84.47-5-.12-7.56-.88-3.71-3.58-5.61-7.41-5.46-3.43.14-5.72,2.21-6.41,5.91a30,30,0,0,0-.42,3.91c-.18,3.69-.16,3.7,3.44,3.7Z"/><path class="cls-4" d="M373.93,505.94c-3.73,0-7.48.07-11.21,0-1.6,0-2.06.5-2.06,2.09,0,6.7,3.36,10,10.07,9.82,2.76-.08,3.64-2.1,4-4.25s1.38-2.73,3.4-2.56a30.19,30.19,0,0,0,6.16,0c3-.39,3,1.2,2.58,3.3a17.73,17.73,0,0,1-14.27,14c-10.19,1.85-18.89-2.31-22.35-10.65a13.14,13.14,0,0,1-1.11-4.6c-.28-8.69-.73-17.4.18-26a16.77,16.77,0,0,1,14.82-14.59c7-.85,13.46,0,18.47,5.61a16.26,16.26,0,0,1,4.44,10.9c.05,5,0,9.91.08,14.87,0,1.82-.69,2.17-2.3,2.13C381.23,505.88,377.58,505.94,373.93,505.94Zm-5.88-9.76h5.88c.82,0,1.49-.1,1.47-1.16-.06-2.7.22-5.43-.83-8-1.21-3-3.67-4.48-7.11-4.32a6.11,6.11,0,0,0-6,4.88,19,19,0,0,0-.68,4.68c-.08,4.92-.4,3.81,3.68,3.94C365.62,496.22,366.84,496.18,368.05,496.18Z"/><path class="cls-4" d="M468.39,500.41c0-3.55,0-7.1,0-10.66a17.28,17.28,0,0,1,16-17.41,25.59,25.59,0,0,1,9.19.51,17.64,17.64,0,0,1,12.93,16.74c.11,4.67-.07,9.35.08,14,.05,1.9-.6,2.38-2.39,2.37-7.1-.08-14.2,0-21.31-.08-2.12,0-2.94.43-2.8,2.77.39,6.53,3.53,9.51,10.07,9.17,2.74-.14,3.59-2.26,4-4.36s1.24-2.6,3.19-2.46a45.68,45.68,0,0,0,6.72,0c2.32-.18,2.59.74,2.23,2.79a17.54,17.54,0,0,1-14.11,14.47,24.1,24.1,0,0,1-12.18-.67,17.34,17.34,0,0,1-11.57-15.7c-.09-3.83,0-7.67,0-11.5Zm19-4.23h1.12c7,0,7.49-.65,5.83-7.75-.92-3.91-3.47-5.89-7.42-5.76s-6.4,2.93-6.72,8.07c-.34,5.44-.34,5.44,4.95,5.44Z"/><path class="cls-3" d="M611.71,473.83c13.45-7,26.24.81,26.28,15.84,0,11.79,0,23.58,0,35.37,0,2-.49,2.66-2.48,2.5a37.55,37.55,0,0,0-6.45,0c-2.18.2-2.67-.62-2.65-2.67.09-10.57,0-21.15,0-31.72a19.08,19.08,0,0,0-.83-6.92c-1.32-3.47-4.61-5.11-8.7-4.37-3.78.7-5.31,2.52-5.29,6.68.09,12.07.19,24.14.42,36.21,0,2.22-.55,3-2.78,2.79a71,71,0,0,0-7.58,0c-1.39.05-2-.3-2-1.85q.07-26.23,0-52.48c0-1.54.55-1.91,2-1.85a70.81,70.81,0,0,0,7.57,0C611.14,471.25,612,471.85,611.71,473.83Z"/><path class="cls-2" d="M682.48,500.36c0,3.64.06,7.29,0,10.94a17.4,17.4,0,0,1-14.81,17.13c-10,1.69-18.7-2.58-22-10.83a12.9,12.9,0,0,1-1-4.34c-.33-8.78-.73-17.59.17-26.34.76-7.47,7.19-13.52,14.66-14.45,6.86-.84,13.28-.14,18.34,5.3a16.42,16.42,0,0,1,4.72,11.36c0,3.74,0,7.48,0,11.23Zm-11.82,0h0v-9.26a13.18,13.18,0,0,0-.1-1.4c-.49-4.33-3-6.87-7-7s-6.56,1.79-7.11,6.32a93.81,93.81,0,0,0,0,22.09c.56,4.85,3.25,6.8,7.79,6.54,3.85-.22,6.12-2.76,6.35-7.46C670.79,506.9,670.66,503.62,670.66,500.34Z"/><path class="cls-4" d="M746.4,500.57c0,3.74.08,7.48,0,11.22a17.19,17.19,0,0,1-12.6,16.09c-6.13,1.54-12.28,1.5-17.79-2.3a16.82,16.82,0,0,1-7.72-14.2q-.18-11,0-21.89a17.3,17.3,0,0,1,15.78-17.1c5.61-.6,11.05-.18,15.66,3.62a17.13,17.13,0,0,1,6.69,13.61c0,3.65,0,7.3,0,10.95Zm-11.81-.23h0c0-3.28.14-6.56,0-9.82-.18-3.09-1.11-5.92-4.34-7.28-5.18-2.17-9.85.92-10.11,7.11-.28,6.54-.12,13.1,0,19.65a10.63,10.63,0,0,0,1,3.77,5.92,5.92,0,0,0,5.12,3.8c5,.58,8-2,8.36-7.41C734.74,506.89,734.59,503.61,734.59,500.34Z"/><path class="cls-2" d="M512.16,501.58c0-5.14-.08-8.89,0-12.63a17.17,17.17,0,0,1,15.09-16.5c4.31-.52,8.61-.51,12.67,1.33,7.54,3.4,12.23,13.08,10.34,21.15-.18.81-.53,1.12-1.3,1.11s-1.69,0-2.53,0c-2.43,0-5.35.78-7.15-.3-2-1.19-.79-4.44-1.24-6.76-.78-4.07-3.18-6.3-7-6.31s-6.55,2.15-6.91,6.28a123.45,123.45,0,0,0,0,22.42c.41,4.39,3.36,6.47,7.79,6.27,4-.17,5.85-2.13,6.28-6.73.59-6.21.59-6.21,6.29-6.21,5.87,0,5.87,0,5.75,5.94-.2,9.58-6.79,17-15.94,17.94-11.11,1.14-19.79-4.14-21.8-13.57C511.51,510.14,512.36,505.12,512.16,501.58Z"/><path class="cls-2" d="M261.83,500.32c0-3.46,0-6.92,0-10.38A17.42,17.42,0,0,1,278,472.33c7.64-.77,14.27,1,19,7.6,3.29,4.62,3.12,9.84,3,15.09,0,.89-.6,1-1.33,1s-1.49,0-2.24,0c-2.52,0-5.52.78-7.44-.31s-.61-4.45-1.18-6.77c-1-4.22-3.09-6.28-7-6.29s-6.31,1.85-6.79,6a96,96,0,0,0,0,22.92c.62,4.95,4.8,7.17,9.61,5.79a5.41,5.41,0,0,0,4-4,17.47,17.47,0,0,0,.52-3.6c.25-5.12.23-5.12,5.51-5.12,6.45,0,6.45,0,6.34,6.4a17.63,17.63,0,0,1-17.45,17.57c-6.05.21-11.52-.92-15.85-5.52a16.89,16.89,0,0,1-4.84-11.61c-.06-3.74,0-7.48,0-11.22Z"/><path class="cls-2" d="M893.78,487.62c-1.36,0-2.4-.08-3.42,0a3.64,3.64,0,0,1-4-2c-2.57-4.31-9.88-3.84-12.27.59a6,6,0,0,0,3.68,8.75,26.7,26.7,0,0,0,5.85.66c9.62.5,16.34,6.94,16.44,15.7a17.46,17.46,0,0,1-16.25,17.54c-9.87.76-16.72-2.58-20.21-9.88-2.38-5-2.22-5.26,3.21-5.26,1.4,0,2.81.08,4.21,0a4.17,4.17,0,0,1,4.52,2.23c1.7,2.84,5.88,3.42,9.07,1.74a6.31,6.31,0,0,0,3.44-7.48,5.34,5.34,0,0,0-4.6-4c-2.76-.44-5.59-.51-8.33-1-8.15-1.48-13.54-7.75-13.49-15.52,0-8.12,6.23-15.83,14-17.05,6.23-1,12.33-.81,17.59,3.49a17.26,17.26,0,0,1,3.94,4.33c1.27,2.07,3.07,4.58,2.11,6.65C898.52,488.58,895.44,487.34,893.78,487.62Z"/><path class="cls-5" d="M460.6,494.74c0,10.1-.05,20.21,0,30.31,0,2-.49,2.64-2.48,2.49a46.87,46.87,0,0,0-7,0c-2.19.17-2.85-.5-2.84-2.77.1-18.24.06-36.48.06-54.73a43.55,43.55,0,0,1,0-5.6c.39-2.85-.81-3.68-3.41-3.25a6.75,6.75,0,0,1-1.68,0c-2.11-.18-5.14,1-6.12-.5-1.45-2.24-.48-5.44-.59-8.22,0-1.06.76-1.12,1.56-1.12q16.27,0,32.56,0c1.2,0,1.74.43,1.63,1.64a2.61,2.61,0,0,0,0,.28c.49,7.94.49,7.94-7.59,7.94-4.17,0-4.17,0-4.17,4.07Z"/><path class="cls-6" d="M205.84,583.33A54.15,54.15,0,0,0,206.6,571c-.07-2.5.66-3.41,3.1-3a8,8,0,0,0,2.24,0c1.67-.21,2.07.56,2,2.09-.2,5.54-.74,11-3.15,16.11a2.42,2.42,0,0,0,.63,3.36c4.06,3.58,8,7.24,12.06,10.87l-.85,1.27c-2.74,0-5.48.11-8.2,0-1.64-.09-2.3-1.76-3.36-2.76-1.55-1.48-2.79-3.94-4.56-4.37-2-.48-3,2.5-4.55,3.78-6,4.77-12.68,5.85-19.77,3.22-11.06-4.09-13.64-19-4.82-27.31,1.41-1.34,3.06-2.43,4.74-3.75l-2.51-2.18c-4.18-3.58-5.62-8.12-4.17-13.36s5.41-8.17,10.62-9.23a17.85,17.85,0,0,1,8.88.43c8.14,2.53,11.13,11.2,6.32,18.26a19.36,19.36,0,0,1-3.94,3.94c-1.24,1-3.82.88-3.73,2.63.06,1.21,1.95,2.35,3.08,3.46C199.64,577.32,202.64,580.22,205.84,583.33Zm-14.63,13.35a13,13,0,0,0,10.61-4.79c.79-.9,1.09-1.52.07-2.54-5-5-10-10.12-14.94-15.21-.63-.65-1.08-1-2.07-.37-3.9,2.57-6.08,9.34-4.58,14.66S185.6,596.61,191.21,596.68Zm4.92-37.45c.11-6.28-2.87-9.46-7.46-9.19-4.26.26-7.2,4.37-6.43,9.1.65,3.93,3.41,6.27,6.53,8.28.88.57,1.61,0,2.32-.36A9.23,9.23,0,0,0,196.13,559.23Z"/><path class="cls-7" d="M346,601.58c-7.57.43-7.57.43-7.57-7.05,0-6,.05-12,0-17.95-.06-5.05-1.81-7.36-5.37-7.34s-5.52,2.67-5.52,7.54c0,7.57-.05,15.15,0,22.72,0,1.69-.4,2.22-2.17,2.23-6.12,0-6.12.1-6.12-5.86q0-10.38,0-20.76c0-2.72-1-4.71-3.75-5.58-3.75-1.21-6.58.78-6.57,4.73,0,8.32,0,16.64.16,25,0,1.95-.48,2.53-2.47,2.51-6.18-.06-6.18,0-6.18-6.05,0-10.38.08-20.76-.05-31.14,0-2.28.7-3.15,2.81-2.64s4.65-1.41,6.1,1.49c0,0,.79-.33,1.21-.51a10.56,10.56,0,0,1,12.17,2.17c1.26,1.19,1.79,1.08,3.08.09,7.74-6,18.5-2.45,20.31,6.55Q346.08,586.63,346,601.58Z"/><path class="cls-7" d="M351.13,581.71c0-5.89.06-11.78,0-17.67,0-1.71.44-2.37,2.2-2.21s3.92-.62,4.93.21c2.43,2,4.33.13,6.41-.12a10.8,10.8,0,0,1,8.92,3.21c1.16,1.08,1.65,1,2.84.1,7.63-5.85,17.7-3,20.42,5.74a13.71,13.71,0,0,1,.46,4.16c0,8,0,16.08.06,24.12,0,2-.58,2.5-2.52,2.47-5.59-.06-5.59,0-5.59-5.5q0-9.39,0-18.79a21.71,21.71,0,0,0-.1-2.8c-.48-3.62-2.52-5.55-5.6-5.39s-5.18,2.4-5.23,5.84c-.11,7.95-.13,15.9,0,23.84,0,2.18-.52,2.87-2.77,2.81-5.41-.14-5.41,0-5.41-5.41,0-6.92,0-13.84,0-20.76,0-3.38-1.29-5.27-3.92-6.06-3.75-1.13-6.58.87-6.56,4.84,0,8.23.12,16.46.33,24.68.05,2-.36,2.75-2.57,2.72-6.24-.11-6.24,0-6.24-6.28Z"/><path class="cls-3" d="M701.56,489.55c0,11.78,0,23.56.05,35.34,0,2.08-.5,2.83-2.64,2.65a46.87,46.87,0,0,0-7,0c-2,.13-2.52-.55-2.51-2.51.07-14,0-28,0-42.07,0-9.54.1-19.08-.07-28.61,0-2.58.78-3.25,3.18-3a30.92,30.92,0,0,0,6.16.07c2.47-.22,2.87.86,2.85,3.07C701.51,466.17,701.56,477.86,701.56,489.55Z"/><path class="cls-7" d="M875,564.33c0-5,.08-9.68,0-14.35-.05-1.75.52-2.18,2.21-2.2,6.29-.08,6.29-.14,6.29,6.15,0,15,0,30.09,0,45.13,0,2-.46,3.18-2.57,2.57-1.83-.52-4.27,1.62-5.55-1.29-.15-.33-.6.13-.9.29-7.92,4.34-17.51-.49-18-9.28a162.37,162.37,0,0,1,0-17.65C857,564.58,868.27,559.6,875,564.33Zm0,18.08c0-2.43,0-4.85,0-7.28,0-3.52-1.3-5-4.46-5.17s-5.38,1.4-5.65,4.51a90.05,90.05,0,0,0,0,15.92,4.66,4.66,0,0,0,5.18,4.39,5.08,5.08,0,0,0,4.91-5.1C875.06,587.26,875,584.83,875,582.41Z"/><path class="cls-8" d="M238.73,574.59c0-5.05-.06-10.1,0-15.15.12-7.65,5.48-12.67,13.41-12.69s13.34,5,13.58,12.59c0,.84,0,1.68,0,2.52,0,6.2,0,6.12-6.25,6-1.8,0-2.18-.67-2.16-2.31.05-2.41.29-4.86-.48-7.23-1-3.07-2.71-4.36-5.51-4.05-2.5.27-4.12,2-4.15,5.11-.11,10-.13,20,0,30,0,3.49,2.16,5.39,5.23,5.33,2.89-.06,4.67-2,4.88-5.4.13-2.33.11-4.68.05-7,0-1.32.42-1.74,1.76-1.83,6.64-.44,6.63-.48,6.63,6.18,0,2.81.13,5.62-1,8.28-2.59,5.87-9.09,8.77-16.29,7.24A12.49,12.49,0,0,1,238.75,590C238.67,584.88,238.73,579.73,238.73,574.59Z"/><path class="cls-2" d="M689.09,574.23c0-8.24.09-16.47-.06-24.71,0-2.27.68-2.85,2.84-2.76,3.73.15,7.48,0,11.23,0,7.84.1,13,5.22,13,13.05.05,4.77.08,9.54,0,14.31-.18,6.81-4.11,10.66-10.91,10.87-1.87.06-3.74.09-5.61,0-1.46-.07-2,.48-2,2,.07,4.21,0,8.42,0,12.63,0,1.49-.28,2.11-2,2.14-6.62.15-6.62.22-6.62-6.44Zm8.56-8.35v7.57c0,4.76,0,4.76,4.7,4.71,3.78,0,5.11-1.34,5.38-5.21a116.07,116.07,0,0,0,0-13.45c-.17-4-1.41-5.19-5.52-5.42-.84-.05-1.69,0-2.52,0-1.55-.16-2.16.39-2.11,2C697.73,559.33,697.65,562.61,697.65,565.88Z"/><path class="cls-9" d="M693.06,655.66c-1.24,5.05-2.61,10.08-3.67,15.16-.4,1.91-1.19,2.3-3,2.27-5.16-.12-5.13,0-6.29-5.1-2.17-9.46-4.38-18.91-6.57-28.37,7.13-1,7.11-1,8.34,5.65.93,5,1.92,9.9,3,15.24,1.4-2.32,1.36-4.68,1.86-6.85.92-4,1.71-8,2.37-12.09.28-1.73.93-2.28,2.71-2.25,5,.07,5,0,6,4.92,1.11,5.39,2.14,10.8,3.68,16.27l2.73-13.17c.2-1,.4-2,.59-3,1-5.13,1-5.07,6.29-5,1.47,0,2,.3,1.59,1.87q-3.72,15.22-7.31,30.48c-.23,1-.68,1.31-1.7,1.4-6,.52-6,.55-7.39-5.47-.91-4-1.86-7.94-2.79-11.92Z"/><path class="cls-9" d="M756,656c0-4.77.1-9.54,0-14.3-.07-2,.66-2.87,2.5-2.33,1.63.48,4-1.55,4.93,1.34.34-.14.69-.27,1-.42a8.82,8.82,0,0,1,10.56,1.8c1.16,1.1,1.65.75,2.63-.06,3.38-2.77,7.12-3.63,11.19-1.56s6.4,5.31,6.39,10c0,6.73-.07,13.47,0,20.2,0,1.78-.39,2.38-2.28,2.35-4.63-.09-4.64,0-4.64-4.72,0-5.14,0-10.29,0-15.43a19.71,19.71,0,0,0-.2-3.07c-.46-2.94-2-4.38-4.58-4.28a4.68,4.68,0,0,0-4.51,4.8c-.09,4.68,0,9.35,0,14v4.21c0,4.46,0,4.37-4.59,4.45-1.8,0-2.36-.42-2.33-2.29.12-6.54,0-13.09.06-19.63,0-2.1-.48-3.92-2.44-5-3.12-1.72-6.44.16-6.44,3.72,0,6.92,0,13.84.19,20.76,0,2-.49,2.49-2.45,2.45-5-.11-5,0-5-5Z"/><path class="cls-7" d="M530.16,579.23c.18-2.37.28-4.42-.68-6.34a4.61,4.61,0,0,0-4.31-2.62c-1.79,0-3.62.32-4.17,2.15-.81,2.65-2.63,2.59-4.76,2.56-5.13-.07-5.71-1-3.23-5.68,2.91-5.45,9.14-8,15.93-6.42a12.35,12.35,0,0,1,9.67,12.2c.1,8.23,0,16.46.06,24.7,0,1.44-.4,2.19-1.89,1.88-2.23-.46-4.75,1.11-6.8-.94-.1-.11-.88.54-1.38.75-8.27,3.39-17.63-2.36-18.37-9.36-.68-6.39,5-13.05,12-13.8A22.47,22.47,0,0,1,530.16,579.23Zm-5.67,5.58c-3,0-6.38,2.92-6.43,5.55s3.23,5,6.45,5,5.78-2.47,5.75-5.29A5.62,5.62,0,0,0,524.49,584.81Z"/><path class="cls-8" d="M429.53,581.92c0,5.7-.11,11.41.06,17.11.07,2.3-.71,2.93-2.84,2.71-1.57-.17-3.68.59-4.66-.19-2.25-1.78-4-.18-5.93.08-7.61,1-13.72-4-13.89-11.74-.19-8.69,0-17.38-.1-26.08,0-1.44.41-1.89,1.89-1.94,6.51-.23,6.5-.29,6.5,6,0,6.83,0,13.65.06,20.47.06,3.67,1.72,5.6,4.69,5.93,3.41.37,5.44-1.29,5.46-4.71.06-8.32.11-16.64,0-25,0-2.25.63-2.83,2.82-2.79,6,.1,6,0,6,6Z"/><path class="cls-8" d="M434.54,581.77c0-5.8.11-11.6-.06-17.39-.06-2.2.7-3,2.7-2.49s4.7-1.41,6.23,1.46a12.91,12.91,0,0,0,1.48-.57c8.21-3.15,16.3,1.78,16.65,10.55s.09,17.76.16,26.65c0,1.39-.51,1.8-1.81,1.72a19.24,19.24,0,0,0-3.64,0c-2.15.25-2.9-.43-2.85-2.72.16-7,.06-14,.05-21a30.26,30.26,0,0,0-.18-3.92,5.12,5.12,0,0,0-5.81-4.78c-3.1.22-4.4,1.71-4.39,5.26,0,8.23,0,16.46.19,24.69,0,1.9-.39,2.56-2.43,2.54-6.29-.06-6.29,0-6.29-6.21Z"/><path class="cls-8" d="M611.32,581.63c0-5.89,0-11.79,0-17.68,0-1.5.34-2.48,2-2.06,2.25.57,5-1.41,6.85,1.34.35.52,1-.24,1.43-.42,8.33-3.16,16.28,1.49,16.75,10.39s.16,18,.19,26.94c0,.28.07.7-.08.81-2.16,1.61-4.62.45-6.94.68-1.71.17-1.2-1.34-1.2-2.23,0-7.49,0-15,0-22.45a11,11,0,0,0-.52-4.43,5.29,5.29,0,0,0-6.15-3.18c-2.65.49-3.74,2.12-3.71,4.76.09,8.33.06,16.65.22,25,0,2-.42,2.7-2.58,2.66-6.19-.12-6.2,0-6.19-6.08,0-2.34,0-4.68,0-7Z"/><path class="cls-6" d="M607.18,582.76c0,2.53.06,5.06,0,7.58a12.21,12.21,0,0,1-11.39,12c-10,.86-15.58-4.27-15.6-14.34,0-4.21,0-8.43,0-12.64.13-7.82,5.51-12.91,13.55-12.89s13.34,5.09,13.45,13c0,2.44,0,4.87,0,7.3ZM588.62,582h0v7a7.55,7.55,0,0,0,0,.83c.4,3.05,2.31,4.91,5.09,5s4.85-1.75,5-4.93c.19-4.94.19-9.9,0-14.83-.12-3.3-2.16-5.09-5.17-5.08-2.81,0-4.66,1.79-4.89,5C588.48,577.3,588.62,579.64,588.62,582Z"/><path class="cls-2" d="M296.49,582.49c0,2.62.14,5.25,0,7.86a12.66,12.66,0,0,1-9.79,11.86c-7.06,1.46-14-.94-15.81-6.88a42.37,42.37,0,0,1,.08-25.86c1.84-5.62,8.38-7.94,15.13-6.73a12.17,12.17,0,0,1,10.27,11.06c.28,2.87,0,5.79,0,8.69Zm-8.38-.09H288a68.1,68.1,0,0,0-.06-7.83c-.37-3.1-2.26-4.62-5-4.66s-4.49,1.47-4.91,4.7a66.22,66.22,0,0,0-.05,15.09c.34,3.45,2.33,5.14,5.22,5.1s4.63-1.88,4.92-5.4C288.26,587.08,288.11,584.73,288.11,582.4Z"/><path class="cls-7" d="M488.26,583.5c.06,1.41,0,4,.32,6.45.37,3.23,2.22,4.83,5.14,4.79s4.36-1.45,4.86-4.71c.69-4.52.7-4.31,5.31-4.59,2.94-.17,3.35,1,3.25,3.52-.24,6.21-3.21,11-8.29,12.75-6,2.11-12.38.54-16.1-4a10.63,10.63,0,0,1-2.58-6.36,148.64,148.64,0,0,1,0-17.66c.45-6.41,5.68-11,12.51-11.23,7.38-.26,12.9,3.73,14.05,10.16s-.31,7.85-6.88,6.69c-1-.18-1.11-.68-1.17-1.48a25.35,25.35,0,0,0-.47-3.89c-.68-2.87-2.42-4.14-5.23-4s-4,1.76-4.41,4.26C488.12,577,488.39,579.68,488.26,583.5Z"/><path class="cls-6" d="M647.66,591.94c2.11,0,4-.25,5.59,2,1.31,1.9,3.85,1.71,5.9.61a4.21,4.21,0,0,0,2.41-4.65c-.41-2.46-2.2-3.3-4.42-3.54l-3.63-.36c-4.51-.5-8.09-2.53-9.85-6.8s-1-8.64,2.11-12.31c6.36-7.56,19.85-5.36,23.26,3.74.72,1.93.69,3.06-1.84,2.8a24.57,24.57,0,0,0-3.64,0,3.27,3.27,0,0,1-3.46-1.61c-1.48-2.32-5.41-2.51-7.49-.66a4.29,4.29,0,0,0-1.43,4.3,3.73,3.73,0,0,0,2.93,3.06,32.91,32.91,0,0,0,4.44.6c5.43.44,9.62,3.42,10.9,7.79A12.25,12.25,0,0,1,665,600.19c-6.7,5.26-17.81,2.63-21-5-1.33-3.13-1.26-3.25,2-3.26Z"/><path class="cls-5" d="M811.41,527c-3.7,1.12-7.48.32-11.22.41-1,0-.84-1.06-.84-1.76,0-17.54,0-35.07,0-52.61,0-1.4.59-1.74,1.85-1.71,3.26.09,6.52.1,9.79.13q0,26.16,0,52.3C811,524.84,810.61,526,811.41,527Z"/><path class="cls-10" d="M805.38,574.77c0-8.14.08-16.27-.06-24.4,0-2.18.66-2.62,2.69-2.59,6.09.09,6.09,0,6.09,6.17,0,12.43,0,24.87,0,37.3,0,2,.38,2.8,2.58,2.7,4-.2,8,0,12.06-.09,1.48,0,1.87.49,1.92,1.93.22,5.89.27,5.89-5.49,5.89s-11.22-.11-16.82.06c-2.27.06-3-.44-3-2.86C805.48,590.84,805.38,582.8,805.38,574.77Z"/><path class="cls-6" d="M734.34,588.14c1.38-7.3,2.78-14.6,4.14-21.91.81-4.32.79-4.32,5.12-4.32a18.59,18.59,0,0,0,2.24,0c1.74-.22,2,.51,1.65,2.07q-4.35,17.94-8.6,35.91c-.34,1.45-1,1.85-2.45,1.87-6.91.07-6.92.13-8.42-6.39-2.39-10.36-4.73-20.73-7.2-31.07-.45-1.9-.12-2.41,1.87-2.42,6.39,0,6.33-.1,7.41,6.31,1.12,6.68,2.37,13.33,3.57,20Z"/><path class="cls-9" d="M849.18,660.38c0,3.64-.06,7.29,0,10.94,0,1.34-.38,1.73-1.72,1.73-3.2,0-6.37-.47-9.59.45a9.38,9.38,0,0,1-6.54-.89c-4.47-2.15-6.84-6-6.05-10,1-5.29,4.92-9,9.79-9.3a14.25,14.25,0,0,1,5.29.33c1.72.56,1.88-.19,1.82-1.6-.18-3.85-1.7-5.64-4.79-5.58a3.54,3.54,0,0,0-3.38,2c-.39.74-.32,2-1.65,1.93-1.86,0-3.73,0-5.58-.15-.52,0-.43-.76-.32-1.2a17,17,0,0,1,.91-3.22c2.23-4.68,7.66-7,13.34-5.79a10.57,10.57,0,0,1,8.42,10.46C849.22,653.83,849.17,657.1,849.18,660.38Zm-11.87,7.25c2.65,0,4.92-2.1,4.88-4.44a4.93,4.93,0,0,0-4.93-4.42c-2.63,0-5.45,2.47-5.45,4.72S834.49,667.67,837.31,667.63Z"/><path class="cls-9" d="M716.13,656.84c0-2.15-.08-4.31,0-6.45.3-6.47,4.9-10.57,11.72-10.5,6.56.06,11,4.32,11.18,10.76.07,2.53-.07,5.06.05,7.58.06,1.45-.34,1.95-1.86,1.91-3.92-.11-7.86.06-11.78-.08-1.87-.07-2.41.47-2.2,2.32.36,3.28,2.69,5.31,5.91,4.89a2.12,2.12,0,0,0,2.06-1.62c.42-2.76,2.36-2.51,4.33-2.48,3.9.06,4.18.46,2.65,4.08-2.07,4.89-7.08,7.25-13.34,6.3a10.64,10.64,0,0,1-8.7-10c-.13-2.24,0-4.49,0-6.74Zm11.44-2.33c1.32-1.18,4.49,1.82,4.43-2.27s-1.55-6.11-4.51-6.11-4.16,2-4.29,6S726.17,653.47,727.57,654.51Z"/><path class="cls-9" d="M799,656.67c0-2.43-.18-4.87,0-7.28.54-6.07,5.19-9.68,12-9.5,6,.16,10.45,4.29,10.61,10.06.09,3.32.44,6.67-.24,10l-9.2.17a15.37,15.37,0,0,0-2.8,0c-1.16.22-2.92-.89-3.38.7a5.06,5.06,0,0,0,1.27,4.95c2.31,2.39,5.92,1.79,7-1.31.64-1.74,1.86-1.31,2.95-1.25,1.43.08,3.46-.81,4.15.5.83,1.57-.32,3.42-1.25,4.93-2.61,4.26-7.87,6.11-13.32,4.75a10.48,10.48,0,0,1-7.88-9.74c-.16-2.32,0-4.67,0-7Zm11.06-2.34c4.71,0,4.71,0,4.71-2.1,0-4-1.69-6.15-4.63-6.11s-4.21,2.16-4.28,6.09C805.82,656.32,809,653.34,810.09,654.33Z"/><path class="cls-9" d="M853.15,656.16c0-4.86.1-9.73,0-14.58-.06-1.91.62-2.69,2.35-2.2s3.86-1.37,5.06,1.21c.19.41.76-.2,1.15-.35,7.72-2.9,14.34,1.53,14.44,9.76.08,6.92-.05,13.84.06,20.75,0,1.82-.44,2.35-2.29,2.31-4.57-.08-4.57,0-4.58-4.47,0-5.79.07-11.59,0-17.38-.08-4.14-2.19-6.09-5.61-5.54-2.36.38-3.32,1.76-3.29,4.08.07,7,0,14,.19,21,0,1.89-.54,2.3-2.33,2.28-5.08-.06-5.08,0-5.08-5.13Z"/><path class="cls-6" d="M547.16,583.19c0-3.37,0-6.73,0-10.1,0-1.52-.12-2.62-2.05-2.3-1.62.27-2.18-.49-2-2a15.85,15.85,0,0,0,0-3.08c-.17-1.63.27-2.55,2.1-2.24s1.95-.68,2-2.13c.1-5.19.15-5,5.34-5.24,2.55-.11,3.4.67,3,3.1-.1.64.06,1.32,0,2-.26,1.85.48,2.44,2.33,2.37,1.19,0,3.14-.82,3.52.62a13.24,13.24,0,0,1,0,6.1c-.27,1.19-2,.63-3,.54-2.1-.16-2.91.39-2.84,2.72.18,6,0,12,.07,17.95,0,3.21.69,4,3.93,4,1.84,0,2.12.7,2.12,2.31,0,5.53.08,5.53-5.45,4.62-6.88-1.14-9-3.58-9-10.49C547.16,589,547.17,586.09,547.16,583.19Z"/><path class="cls-7" d="M836.82,583.59c0-3.55-.05-7.1,0-10.65,0-1.4-.11-2.45-1.89-2.15s-2.36-.49-2.17-2.18a12.48,12.48,0,0,0,0-2.8c-.16-1.69.23-2.73,2.22-2.39s1.81-.91,1.83-2.22c.08-5.09.12-4.9,5.11-5.16,2.84-.14,3.45.82,3.3,3.44-.23,3.83-.06,3.94,3.69,3.9,1.7,0,2.48.44,2.22,2.2a8.34,8.34,0,0,0,0,1.12c0,3.95,0,4-3.94,4-1.58,0-2.08.45-2.06,2q.14,9.39,0,18.78c0,2.73,1.09,4.14,3.8,3.89,2.08-.2,2.22.83,2.22,2.46,0,5.35.06,5.35-5.34,4.46-7-1.17-9-3.52-9-10.67Z"/><path class="cls-4" d="M755.78,583.87c0-3.74,0-7.49,0-11.23,0-1.22-.23-2.08-1.67-1.84-2.24.37-2.79-.71-2.55-2.7a17.59,17.59,0,0,0,0-3.08c-.08-1.23.47-1.77,1.64-1.58,2.23.35,2.63-.72,2.59-2.71-.09-4.61,0-4.47,4.74-4.67,2.55-.11,3.66.36,3.46,3.26-.28,4-.06,4.11,3.86,4,1.81,0,2.35.6,2.12,2.26a9.34,9.34,0,0,0,0,1.4c0,3.7,0,3.78-3.65,3.72-1.74,0-2.48.33-2.44,2.29.13,6.07,0,12.16.06,18.23,0,3.37.71,4.14,4.13,4.18,1.72,0,1.91.73,1.93,2.17.07,5.66.11,5.69-5.56,4.72-5.46-.93-9.16-3-8.71-10.06C755.93,589.49,755.78,586.67,755.78,583.87Z"/><path class="cls-8" d="M912.78,653c0-5.8,0-11.59,0-17.39,0-1.74-.36-2.7-2.3-2.39a9.35,9.35,0,0,1-1.4,0c-3.09,0-4.31-1.88-3.32-4.93.29-.92.91-.8,1.52-.8q9.12,0,18.23,0c3,0,1.3,2.28,1.61,3.52s.15,2.22-1.74,2.26c-5.29.13-5.29.23-5.29,5.5,0,10.57-.06,21.13,0,31.7,0,2.08-.5,2.7-2.63,2.64-4.76-.15-4.77,0-4.77-4.69Z"/><path class="cls-11" d="M466.85,581.79c0-5.88.07-11.76,0-17.64,0-1.83.51-2.36,2.36-2.36,6.44,0,6.44-.09,6.44,6.37,0,10.36-.05,20.72,0,31.08,0,2-.56,2.51-2.51,2.49-6.29,0-6.29,0-6.29-6.22Z"/><path class="cls-11" d="M575.63,582.06c0,5.7-.07,11.39,0,17.08,0,1.83-.3,2.62-2.39,2.6-6.4,0-6.4.06-6.4-6.41,0-10.27,0-20.53,0-30.8,0-1.95.3-2.79,2.55-2.76,6.25.1,6.25,0,6.25,6.29Z"/><path class="cls-10" d="M901.67,650.3c0,6.72-.09,13.45.05,20.17,0,2.16-.62,2.67-2.68,2.62-4.78-.12-4.79,0-4.79-4.66,0-12.8.06-25.6,0-38.39,0-2.14.6-2.68,2.68-2.62,4.79.14,4.79,0,4.79,4.94Z"/><path class="cls-9" d="M944.37,643.3c0-4.66,0-9.33,0-14,0-1.48.43-1.86,1.9-1.88,5.44-.09,5.44-.15,5.44,5.36,0,7.93,0,15.85,0,23.78,0,1.83-.27,2.61-2.37,2.57-5-.11-5,0-5-4.93Z"/><path class="cls-9" d="M963.75,643.54c0,4.48,0,9,0,13.44,0,1.41-.13,2.13-1.89,2.15-5.44.06-5.44.15-5.44-5.34,0-8,.06-16-.05-24.08,0-1.89.56-2.31,2.36-2.28,5,.09,5,0,5,4.91Z"/><path class="cls-9" d="M968.67,643.31c0-4.66.05-9.33,0-14,0-1.44.37-1.86,1.86-1.88,5.48-.06,5.47-.13,5.47,5.31,0,8-.06,16,0,24.07,0,1.88-.54,2.33-2.35,2.32-5,0-5,0-5-4.9Z"/><path class="cls-11" d="M799.33,457.55c0-6.21,0-6.21,6-6.14s6.19.07,6.19,6.36c0,6.7,0,6.7-6.63,6.7-5.61,0-5.61,0-5.61-5.52Z"/><path class="cls-10" d="M784.94,597.12c0,4.56,0,4.56-4.55,4.56-4.19,0-4.19,0-4.19-4.06,0-5.18,0-5.18,5-5.11C784.94,592.55,784.94,592.55,784.94,597.12Z"/><path class="cls-11" d="M575.63,552.45c0,4.54,0,4.54-4.57,4.54-.75,0-1.5,0-2.24,0-1.41.13-2.14-.37-2-1.88a10.89,10.89,0,0,0,0-1.4c0-6,0-5.88,6-6,2.09,0,3.22.39,2.82,2.72A12.82,12.82,0,0,0,575.63,552.45Z"/><path class="cls-11" d="M475.61,552.54c0,4.45,0,4.45-4.4,4.45s-4.36,0-4.36-4.48c0-4.72,0-4.72,4.64-4.7a8.17,8.17,0,0,0,1.4,0c2.26-.37,3.05.62,2.73,2.79A14.08,14.08,0,0,0,475.61,552.54Z"/><path class="cls-2" d="M898.52,597.11c0,4.57,0,4.57-4.52,4.57-.84,0-1.69-.06-2.53,0-1.2.09-1.72-.42-1.65-1.61,0-.47,0-.94,0-1.4,0-6.22,0-6.12,6.08-6.16,2.07,0,3,.48,2.63,2.63A12.82,12.82,0,0,0,898.52,597.11Z"/><path class="cls-9" d="M951.68,669.47c0,3.55,0,3.55-4.08,3.55-3.23,0-3.23,0-3.23-4.37,0-3.34,0-3.36,4-3.33C952.22,665.35,951.62,664.79,951.68,669.47Z"/><path class="cls-9" d="M960.27,673c-3.82,0-3.86,0-3.81-4.36,0-3.89-.62-3.3,4-3.34,3.25,0,3.25,0,3.24,4.7C963.75,673,963.75,673,960.27,673Z"/><path class="cls-9" d="M976,669.33c0,3.69,0,3.37-4.21,3.78s-3.07-2.21-3.09-4.32c0-3.48,0-3.48,3.9-3.48C976,665.32,976,665.32,976,669.33Z"/><path class="cls-11" d="M305.2,451.82c.68.82.4,1.79.4,2.7q0,34.89,0,69.79c0,.9.29,1.88-.43,2.68a4.69,4.69,0,0,1-.14-.82q0-36.63,0-73.26A6.88,6.88,0,0,1,305.2,451.82Z"/><path class="cls-11" d="M811.41,527c-.8-1-.43-2.16-.43-3.24q0-26.14,0-52.3c.94.26.59,1.05.59,1.62q0,26.55,0,53.1A4.85,4.85,0,0,1,811.41,527Z"/><path class="cls-11" d="M346,601.58q0-15,.08-29.89a4.28,4.28,0,0,1,.5,2.69q0,12.79,0,25.59C346.61,600.53,347,601.32,346,601.58Z"/><path class="cls-12" d="M201.61,360.18c-.46,1-1.43,1.28-2.19,1.72q-23,13.64-46.09,27.23L49.78,450.26c-3.24,1.91-3.24,1.9-5.25-1.44a8.47,8.47,0,0,0-.72-1.2c-1.26-1.44-.79-2.23.78-3.13,9.08-5.2,18.1-10.5,27.14-15.77q62-36.15,124-72.27c.87-.5,1.89-1.95,2.88-.92A28.15,28.15,0,0,1,201.61,360.18Z"/><path class="cls-12" d="M160.53,419.84c-3.43-1.15-6.67-2.29-8.53-5.8a50.35,50.35,0,0,0-4.57-6.72c-1-1.25-.61-1.79.57-2.59,5.45-3.68,5.42-3.72,9,1.93a20,20,0,0,0,1.81,2.83C161.54,412.55,161.34,416.06,160.53,419.84Z"/><path class="cls-12" d="M96.24,458.38c-4-1.17-7.3-2.78-9.11-6.53a18.71,18.71,0,0,0-1.56-2.31c-4-5.86-4-5.82,2.37-9.07,1-.51,1.44-.4,2,.49,2.08,3.41,4.36,6.72,6.28,10.23C97.43,453.43,96.27,455.89,96.24,458.38Z"/><path class="cls-12" d="M75.91,470.45c-3.72-1.25-7.08-2.48-8.83-6.14a21.22,21.22,0,0,0-1.87-2.79c-3.82-5.58-3.6-6.3,2.58-9.09.89-.4,1.31-.25,1.79.52,2.1,3.43,4.37,6.76,6.33,10.26C77.17,465.47,75.89,467.91,75.91,470.45Z"/><path class="cls-12" d="M182.09,400.81c-.13,4.42-.09,4.31-3.76,2.87a8.85,8.85,0,0,1-4.8-4c-.73-1.29-1.67-2.46-2.51-3.69-3.55-5.2-3.51-5.13,1.7-8.49,1.52-1,2.28-1,3.19.7,1.43,2.6,3.07,5.1,4.7,7.58C181.72,397.49,182.66,399.16,182.09,400.81Z"/><path class="cls-12" d="M140.6,431.75c-5.82-.55-8.27-4.66-10.91-8.65-3.63-5.5-3.67-5.41,2-8.82,1.26-.76,1.84-.69,2.59.6,1.83,3.13,3.81,6.18,5.75,9.26C141.62,426.62,140.08,429.23,140.6,431.75Z"/><path class="cls-12" d="M202.92,387.23c-.16,4.36-.12,4.28-3.77,2.8a8.89,8.89,0,0,1-4.77-4,41.63,41.63,0,0,0-2.51-3.71c-3.87-5.63-3.77-5.89,2.5-8.9,1-.49,1.48-.28,2,.58,2.05,3.33,4.14,6.64,6.22,10C203.31,385.09,202.82,386.32,202.92,387.23Z"/><path class="cls-12" d="M120.37,440.06c-.15,4.25-.13,4.19-4,2.6A8.48,8.48,0,0,1,112,439c-.83-1.46-1.94-2.75-2.79-4.19-1-1.65-3.49-3.42-2.71-4.81,1-1.8,3.63-2.69,5.56-4,.91-.62,1.32,0,1.74.65q3.11,5,6.23,10C120.75,437.78,120.3,439,120.37,440.06Z"/></svg>