<svg xmlns="http://www.w3.org/2000/svg" viewBox="0 0 952.04 347.7"><defs><style>.cls-1{fill:snow;}</style></defs><title>Asset 6</title><g id="Layer_2" data-name="Layer 2"><g id="Layer_1-2" data-name="Layer 1"><path class="cls-1" d="M755.39,199.29c-10.84,6.94-25.61-.65-26.17-13.44-.36-8.13-.42-16.3,0-24.41.66-11.89,11.88-16.57,20.15-15.62,2.48.29,4.36,2,6.62,3.88-.48-2.67.87-2.93,2.76-2.82,2.33.15,4.68.09,7,0,1.35-.05,2,.26,2,1.83-.06,19.09.24,38.18-.16,57.26-.25,12.51-16.57,21.37-27.65,15.32a21.66,21.66,0,0,1-11.38-15.51c-.36-1.86-.11-3.12,2.3-2.77a26,26,0,0,0,3.64,0c1.78,0,3.74-.43,5.28.19,1.74.7.75,3,1.33,4.53,1.25,3.28,3.85,5,7.68,4.84a6.72,6.72,0,0,0,6.63-5.41A14.15,14.15,0,0,0,755.39,199.29ZM741,174.2c0,3.27-.16,6.55,0,9.81.31,5.14,3.36,7.81,8.18,7.44,3.49-.27,5.89-2.65,6.23-7.08a163.28,163.28,0,0,0,0-21.56c-.21-3.84-2.91-6.09-6.65-6.28-4.63-.24-7.48,2.44-7.75,7.58C740.8,167.47,740.94,170.84,741,174.2Z"/><path class="cls-1" d="M160.32,162.83c0,6.93-.11,13.85,0,20.77.11,5,2.72,7.72,6.95,7.88,3.86.15,6.13-1.53,7.09-5.34,1-4,.48-8,.49-12,0-1.85.31-2.77,2.41-2.54,3,.34,7-1.29,8.89.64,1.73,1.78.38,5.7.49,8.67.16,4.81-.05,9.55-2.94,13.72-5.18,7.46-13.36,9.48-22.76,7.06-7.77-2-12.45-8.95-12.46-17.58q0-20.91,0-41.82c0-11.08,7.35-18.33,18.52-18.37,9.67,0,16.43,4.39,18.85,12.34,1.17,3.84.75,7.79.78,11.71,0,5.55,0,5.55-5.55,5.55-6.15,0-6.18,0-6.17-6a24,24,0,0,0-1.11-8.29,6.68,6.68,0,0,0-7.05-4.85c-3.22.18-5,1.77-6.06,5.26a18.44,18.44,0,0,0-.47,5.28c0,6,0,12,0,18Z"/><path class="cls-1" d="M543.24,149c3.53-2.62,7.24-3,11-2.78,8.75.52,15.11,7.42,15.29,17,.23,12.06,0,24.13.11,36.2,0,1.63-.57,2.11-2.12,2a60.71,60.71,0,0,0-7,0c-2,.13-2.55-.5-2.53-2.49.09-10.29.06-20.58,0-30.87a19.74,19.74,0,0,0-.57-6.4c-1.31-3.9-4.46-5.72-8.82-5-3.65.58-5.35,2.73-5.33,7,.06,11.6.1,23.2.3,34.8,0,2.23-.36,3.25-2.83,3a41,41,0,0,0-7,0c-2,.14-2.53-.56-2.51-2.51.07-13.1,0-26.19,0-39.29,0-10.57,0-21.14,0-31.71,0-2,.42-2.9,2.63-2.69a53.71,53.71,0,0,0,7.29.1c1.79-.09,2.18.62,2.16,2.28C543.2,134.55,543.24,141.52,543.24,149Z"/><path class="cls-1" d="M281.22,125.67c3.56-1,7.17-.23,10.76-.25,1.46,0,.91,1.4.92,2.2,0,7,0,14,0,21.4,3.37-2.61,7.06-3,10.79-2.87,8.65.37,15.38,7.38,15.51,16.43.18,12.24,0,24.49.1,36.74,0,1.6-.48,2.14-2.07,2.05-3-.16-6.81.94-8.7-.52s-.6-5.59-.64-8.53c-.1-7.95,0-15.9-.05-23.85a40.8,40.8,0,0,0-.37-5.3c-.61-4.49-3.34-6.77-7.83-6.65s-6.73,2.41-6.71,7.15c.05,9.26.22,18.52.33,27.77,0,2.71.06,5.42.06,8.14,0,.71.19,1.74-.89,1.7-3.75-.16-7.55.7-11.26-.44.72-.8.43-1.78.43-2.69q0-34.89,0-69.79C281.62,127.46,281.9,126.48,281.22,125.67Z"/><path class="cls-1" d="M219.84,199.34c-4.89,4.12-13.25,4.2-19.62.34-6.88-4.16-9.71-10-8.1-16.56,2.09-8.5,8.43-14.15,16.56-14.74a24.86,24.86,0,0,1,9.44.9c1.56.49,2.07,0,1.93-1.49a38.52,38.52,0,0,0-.48-5.29,6.44,6.44,0,0,0-6.26-5.43c-3.89-.27-5.73.72-7.13,4.42a3,3,0,0,1-3.53,2.24,62.87,62.87,0,0,0-7,0c-1.65.07-2.06-.47-1.87-2.13.78-6.78,5.67-13,12.47-14.7,7.57-1.86,14.9-1.44,20.76,4.74A16.1,16.1,0,0,1,231.73,163c0,12.06,0,24.12.06,36.18,0,1.68-.43,2.33-2.19,2.23a63.15,63.15,0,0,0-7.28,0C220.79,201.47,219.85,201.1,219.84,199.34Zm.18-14a8.2,8.2,0,0,0-8.52-7.91c-4.81.35-9.17,4.92-8.51,9a5.44,5.44,0,0,0,.81,2.05c2.53,3.72,8.76,5.07,12.53,2.65C218.54,189.7,220.15,187.81,220,185.36Z"/><path class="cls-1" d="M794.15,174.09c0-3.93-.19-7.87,0-11.78a17.08,17.08,0,0,1,15.28-16,24.17,24.17,0,0,1,11.36.91C827.71,149.74,832,156,832.17,164c.11,4.49-.06,9,.06,13.47,0,1.86-.52,2.41-2.37,2.38-7.21-.1-14.41,0-21.62-.08-2.19,0-2.68.65-2.48,2.75.6,6.3,2.4,8.41,8.14,9,3.82.4,5-.31,5.94-4.19.45-2,1.24-2.61,3.2-2.46a43.2,43.2,0,0,0,6.73,0c2.16-.18,2.48.72,2.21,2.6a17.11,17.11,0,0,1-8,12.28c-7.53,5-19.45,3.45-25.49-3.21a15.35,15.35,0,0,1-4.31-10.1c-.1-4.11,0-8.23,0-12.35ZM813.51,170c2-.25,5.2,1.11,6.56-.49,1.55-1.84.47-5-.12-7.56-.88-3.71-3.58-5.61-7.41-5.46-3.43.13-5.72,2.21-6.41,5.91a30,30,0,0,0-.42,3.9c-.18,3.7-.16,3.7,3.44,3.7Z"/><path class="cls-1" d="M350,179.79c-3.73,0-7.47.07-11.21,0-1.6,0-2.06.51-2.06,2.1,0,6.7,3.36,10,10.07,9.82,2.77-.08,3.64-2.1,4-4.25s1.38-2.73,3.4-2.56a30.19,30.19,0,0,0,6.16,0c3-.39,3,1.2,2.58,3.3a17.74,17.74,0,0,1-14.27,14c-10.19,1.85-18.89-2.31-22.35-10.65a13.14,13.14,0,0,1-1.11-4.61c-.28-8.68-.73-17.39.18-26a16.78,16.78,0,0,1,14.82-14.58c7-.85,13.46,0,18.47,5.61a16.26,16.26,0,0,1,4.44,10.9c.05,5-.05,9.91.08,14.86,0,1.83-.69,2.18-2.3,2.14C357.25,179.73,353.6,179.79,350,179.79ZM344.07,170H350c.82,0,1.49-.1,1.47-1.16-.06-2.7.22-5.43-.83-8-1.21-3-3.67-4.49-7.11-4.32a6.11,6.11,0,0,0-6.05,4.88,19,19,0,0,0-.68,4.68c-.08,4.92-.4,3.81,3.68,3.94C341.64,170.06,342.86,170,344.07,170Z"/><path class="cls-1" d="M444.41,174.26c0-3.55,0-7.11,0-10.66a17.28,17.28,0,0,1,16-17.41,25.59,25.59,0,0,1,9.19.51,17.64,17.64,0,0,1,12.93,16.74c.11,4.67-.06,9.35.08,14,.05,1.9-.6,2.38-2.38,2.36-7.11-.07-14.21,0-21.32-.07-2.12,0-2.94.43-2.8,2.76.39,6.54,3.53,9.52,10.07,9.18,2.74-.14,3.59-2.26,4-4.36s1.24-2.61,3.19-2.46a45.68,45.68,0,0,0,6.72,0c2.32-.18,2.59.74,2.23,2.79a17.52,17.52,0,0,1-14.11,14.46,24,24,0,0,1-12.18-.66,17.35,17.35,0,0,1-11.57-15.71c-.09-3.83,0-7.66,0-11.49Zm19-4.23h1.12c7,0,7.49-.65,5.83-7.75-.92-3.91-3.47-5.89-7.42-5.76s-6.4,2.93-6.72,8.07c-.34,5.44-.34,5.44,4.95,5.44Z"/><path class="cls-1" d="M587.73,147.67c13.45-7,26.24.82,26.28,15.85,0,11.79,0,23.58,0,35.37,0,2-.49,2.65-2.48,2.49a37.55,37.55,0,0,0-6.45,0c-2.17.2-2.67-.62-2.65-2.67.09-10.57,0-21.15,0-31.72a19.08,19.08,0,0,0-.83-6.92c-1.32-3.47-4.61-5.11-8.7-4.37-3.78.69-5.31,2.52-5.28,6.68.08,12.07.18,24.14.41,36.2,0,2.23-.55,3-2.78,2.8a68.44,68.44,0,0,0-7.58,0c-1.39,0-2-.3-2-1.85q.06-26.24,0-52.49c0-1.53.55-1.9,2-1.84a70.81,70.81,0,0,0,7.57,0C587.16,145.1,588,145.7,587.73,147.67Z"/><path class="cls-1" d="M658.5,174.2c0,3.65.06,7.3,0,11a17.4,17.4,0,0,1-14.81,17.13c-10,1.69-18.7-2.58-22-10.83a12.9,12.9,0,0,1-1-4.34c-.33-8.78-.73-17.59.17-26.34.76-7.47,7.19-13.53,14.66-14.45,6.86-.84,13.28-.15,18.34,5.3A16.42,16.42,0,0,1,658.48,163c0,3.74,0,7.48,0,11.22Zm-11.82,0h0v-9.26a10.85,10.85,0,0,0-.1-1.4c-.49-4.33-3-6.87-7-7s-6.56,1.79-7.11,6.32a93.81,93.81,0,0,0,0,22.09c.56,4.85,3.25,6.79,7.79,6.54,3.85-.22,6.12-2.76,6.35-7.46C646.81,180.74,646.68,177.46,646.68,174.19Z"/><path class="cls-1" d="M722.42,174.42c0,3.74.08,7.48,0,11.22a17.2,17.2,0,0,1-12.6,16.09c-6.13,1.54-12.28,1.49-17.79-2.3a16.84,16.84,0,0,1-7.72-14.2q-.18-10.95,0-21.89a17.3,17.3,0,0,1,15.78-17.1c5.61-.6,11-.18,15.67,3.62a17.14,17.14,0,0,1,6.68,13.61c0,3.65,0,7.3,0,10.95Zm-11.81-.24h0c0-3.27.14-6.55,0-9.82-.18-3.08-1.11-5.92-4.34-7.27-5.18-2.17-9.85.92-10.11,7.11-.28,6.54-.12,13.1,0,19.64a10.63,10.63,0,0,0,1,3.78,5.92,5.92,0,0,0,5.12,3.8c5,.58,8-2,8.36-7.41C710.76,180.74,710.61,177.46,710.61,174.18Z"/><path class="cls-1" d="M488.19,175.43c0-5.14-.09-8.89,0-12.63a17.17,17.17,0,0,1,15.09-16.5c4.31-.52,8.61-.51,12.67,1.32,7.54,3.4,12.23,13.09,10.35,21.16-.19.8-.54,1.12-1.31,1.11s-1.69,0-2.53,0c-2.43,0-5.35.78-7.15-.3-2-1.19-.79-4.44-1.24-6.76-.78-4.07-3.18-6.3-7-6.31s-6.56,2.15-6.92,6.28a124.37,124.37,0,0,0,0,22.42c.41,4.39,3.36,6.46,7.79,6.27,4-.17,5.85-2.13,6.28-6.73.59-6.21.59-6.21,6.29-6.21,5.87,0,5.87,0,5.75,5.94-.2,9.58-6.79,17-15.94,17.94-11.11,1.14-19.79-4.14-21.79-13.57C487.53,184,488.38,179,488.19,175.43Z"/><path class="cls-1" d="M237.85,174.17c0-3.46,0-6.92,0-10.38A17.42,17.42,0,0,1,254,146.18c7.64-.77,14.27,1,19,7.6,3.29,4.61,3.12,9.84,3,15.08,0,.9-.6,1-1.33,1s-1.49,0-2.24,0c-2.52,0-5.52.77-7.44-.32s-.61-4.44-1.18-6.76c-1-4.22-3.09-6.28-7-6.29s-6.32,1.85-6.8,6a96,96,0,0,0,0,22.92c.62,4.95,4.8,7.16,9.61,5.78a5.38,5.38,0,0,0,4-4,17.47,17.47,0,0,0,.52-3.6c.25-5.12.23-5.12,5.51-5.12,6.45,0,6.45,0,6.35,6.4a17.66,17.66,0,0,1-17.46,17.57c-6.05.21-11.52-.92-15.85-5.52a16.94,16.94,0,0,1-4.84-11.61c-.06-3.74,0-7.48,0-11.22Z"/><path class="cls-1" d="M869.8,161.47c-1.36,0-2.4-.08-3.42,0a3.64,3.64,0,0,1-4-2c-2.57-4.31-9.88-3.84-12.27.59a6,6,0,0,0,3.69,8.74,26,26,0,0,0,5.84.66c9.63.51,16.34,7,16.44,15.71A17.46,17.46,0,0,1,859.8,202.7c-9.87.76-16.72-2.58-20.21-9.88-2.38-5-2.22-5.27,3.21-5.27,1.4,0,2.81.09,4.21,0a4.2,4.2,0,0,1,4.52,2.23c1.7,2.85,5.88,3.42,9.07,1.75A6.31,6.31,0,0,0,864,184a5.34,5.34,0,0,0-4.6-4c-2.76-.44-5.59-.51-8.33-1-8.15-1.48-13.54-7.75-13.49-15.52,0-8.12,6.23-15.83,14-17.05,6.23-1,12.33-.81,17.59,3.49a17.26,17.26,0,0,1,3.94,4.33c1.27,2.07,3.07,4.58,2.11,6.65C874.54,162.42,871.46,161.19,869.8,161.47Z"/><path class="cls-1" d="M436.62,168.59c0,10.1-.05,20.21,0,30.31,0,2-.49,2.64-2.48,2.49a46.87,46.87,0,0,0-7,0c-2.19.17-2.85-.5-2.84-2.77.1-18.24.06-36.49.06-54.73a42,42,0,0,1,.05-5.61c.38-2.85-.82-3.67-3.42-3.24a6.75,6.75,0,0,1-1.68,0c-2.11-.18-5.14,1-6.12-.5-1.45-2.24-.48-5.44-.59-8.23,0-1,.76-1.11,1.56-1.11q16.28,0,32.56,0c1.2,0,1.74.43,1.63,1.64a1.34,1.34,0,0,0,0,.28c.48,7.94.48,7.94-7.6,7.94-4.17,0-4.17,0-4.17,4.07Z"/><path class="cls-1" d="M181.86,257.18a54.19,54.19,0,0,0,.76-12.37c-.07-2.51.66-3.41,3.1-3a7.64,7.64,0,0,0,2.24,0c1.67-.21,2.07.56,2,2.09-.2,5.54-.74,11-3.15,16.1a2.43,2.43,0,0,0,.63,3.37c4.06,3.58,8.05,7.24,12.07,10.87l-.86,1.27c-2.74,0-5.48.11-8.2,0-1.64-.09-2.3-1.75-3.35-2.75-1.56-1.48-2.8-3.94-4.57-4.37-2-.48-2.95,2.5-4.55,3.77-6,4.78-12.68,5.86-19.77,3.23-11.06-4.1-13.64-19-4.82-27.31,1.41-1.34,3.06-2.43,4.74-3.75-.85-.74-1.68-1.47-2.51-2.18-4.18-3.58-5.62-8.12-4.17-13.36s5.41-8.17,10.62-9.23A17.85,17.85,0,0,1,171,220c8.14,2.53,11.13,11.2,6.32,18.26a19.61,19.61,0,0,1-3.94,3.94c-1.24,1-3.82.88-3.73,2.63.06,1.21,1.95,2.35,3.08,3.46C175.66,251.17,178.66,254.07,181.86,257.18Zm-14.63,13.35a13,13,0,0,0,10.61-4.79c.79-.9,1.09-1.52.07-2.54-5-5-10-10.12-14.94-15.21-.63-.65-1.08-1-2.07-.37-3.9,2.56-6.08,9.33-4.58,14.66S161.62,270.46,167.23,270.53Zm4.93-37.45c.1-6.28-2.88-9.46-7.47-9.19-4.26.26-7.2,4.37-6.42,9.1.64,3.93,3.4,6.26,6.52,8.28.88.57,1.61,0,2.33-.37A9.25,9.25,0,0,0,172.16,233.08Z"/><path class="cls-1" d="M322.05,275.42c-7.57.44-7.57.44-7.57-7,0-6,0-12,0-17.95-.06-5.05-1.81-7.36-5.37-7.34s-5.52,2.67-5.52,7.54c0,7.57-.05,15.15,0,22.72,0,1.69-.41,2.22-2.18,2.22-6.12,0-6.12.11-6.12-5.86q0-10.38,0-20.75c0-2.72-1-4.71-3.75-5.58-3.75-1.21-6.58.78-6.57,4.72,0,8.33,0,16.65.16,25,0,1.95-.48,2.52-2.47,2.51-6.18-.06-6.18,0-6.18-6.05,0-10.38.08-20.76-.05-31.14,0-2.28.7-3.16,2.81-2.65s4.65-1.4,6.1,1.5c0,0,.79-.33,1.22-.51a10.54,10.54,0,0,1,12.16,2.16c1.26,1.19,1.79,1.09,3.08.09,7.74-6,18.5-2.45,20.31,6.56Q322.1,260.48,322.05,275.42Z"/><path class="cls-1" d="M327.15,255.56c0-5.89.06-11.78,0-17.67,0-1.71.44-2.37,2.2-2.21s3.92-.62,4.93.21c2.43,2,4.33.13,6.41-.12a10.79,10.79,0,0,1,8.92,3.2c1.16,1.09,1.65,1,2.84.11,7.63-5.85,17.7-3,20.42,5.74a13.64,13.64,0,0,1,.46,4.15c0,8-.05,16.09.06,24.13,0,2-.58,2.5-2.52,2.47-5.59-.06-5.59,0-5.59-5.5q0-9.4,0-18.8a21.62,21.62,0,0,0-.1-2.79c-.48-3.62-2.52-5.55-5.6-5.39s-5.18,2.4-5.23,5.84c-.11,7.95-.13,15.9,0,23.84,0,2.18-.52,2.87-2.77,2.81-5.41-.14-5.41,0-5.41-5.41,0-6.92,0-13.84,0-20.76,0-3.38-1.29-5.27-3.92-6.06-3.75-1.13-6.58.87-6.56,4.84,0,8.23.12,16.45.33,24.68.05,2-.36,2.75-2.57,2.72-6.24-.11-6.24,0-6.24-6.28Z"/><path class="cls-1" d="M677.58,163.39c0,11.78-.05,23.56,0,35.34,0,2.09-.5,2.84-2.64,2.66a48.24,48.24,0,0,0-7,0c-2,.14-2.52-.55-2.51-2.5.07-14,0-28,0-42.07,0-9.54.1-19.08-.07-28.61,0-2.58.78-3.25,3.18-3a30.92,30.92,0,0,0,6.16.07c2.47-.22,2.87.86,2.85,3.07C677.53,140,677.58,151.71,677.58,163.39Z"/><path class="cls-1" d="M851,238.18c0-5,.08-9.68,0-14.35,0-1.75.52-2.18,2.21-2.2,6.29-.08,6.29-.14,6.29,6.15,0,15,0,30.08,0,45.13,0,2-.46,3.18-2.57,2.57-1.83-.52-4.27,1.62-5.55-1.29-.15-.33-.6.13-.9.29-7.91,4.33-17.51-.5-18-9.28a162.37,162.37,0,0,1,0-17.65C833,238.42,844.3,233.44,851,238.18Zm0,18.07c0-2.42,0-4.85,0-7.27,0-3.52-1.3-4.95-4.46-5.17s-5.37,1.4-5.65,4.51a90.05,90.05,0,0,0,0,15.92,4.66,4.66,0,0,0,5.18,4.39,5.08,5.08,0,0,0,4.91-5.1C851.08,261.1,851,258.68,851,256.25Z"/><path class="cls-1" d="M214.75,248.44c0-5.05-.06-10.1,0-15.15.12-7.65,5.48-12.68,13.41-12.69s13.34,5,13.58,12.59c0,.84,0,1.68,0,2.52,0,6.2,0,6.12-6.25,6-1.8,0-2.18-.66-2.16-2.3,0-2.41.29-4.86-.48-7.24-1-3.06-2.71-4.35-5.51-4.05-2.5.28-4.12,2-4.15,5.12-.11,10-.13,20,0,30,0,3.49,2.17,5.39,5.23,5.33,2.89-.06,4.67-1.95,4.88-5.4.13-2.33.11-4.68,0-7,0-1.32.42-1.74,1.76-1.83,6.64-.44,6.63-.48,6.64,6.18,0,2.8.13,5.62-1,8.28-2.59,5.87-9.09,8.77-16.29,7.24a12.49,12.49,0,0,1-9.68-12.18C214.69,258.73,214.75,253.58,214.75,248.44Z"/><path class="cls-1" d="M665.11,248.07c0-8.23.09-16.47-.06-24.7,0-2.28.68-2.85,2.84-2.76,3.74.15,7.48,0,11.23,0,7.84.1,13,5.21,13,13,.05,4.78.08,9.55,0,14.32-.17,6.81-4.11,10.66-10.91,10.87-1.87.06-3.74.08-5.61,0-1.46-.07-2,.48-2,1.95.07,4.21,0,8.42.05,12.63,0,1.49-.28,2.1-2,2.14-6.62.15-6.62.22-6.62-6.44Zm8.56-8.34v7.57c0,4.76,0,4.76,4.7,4.71,3.78,0,5.11-1.34,5.38-5.22a115.89,115.89,0,0,0,0-13.44c-.17-4-1.41-5.2-5.52-5.42-.84-.05-1.69,0-2.52,0-1.55-.16-2.16.39-2.11,2C673.75,233.18,673.67,236.46,673.67,239.73Z"/><path class="cls-1" d="M669.08,329.51c-1.24,5.05-2.61,10.08-3.67,15.16-.4,1.91-1.19,2.3-3,2.26-5.16-.11-5.13,0-6.29-5.1-2.17-9.45-4.38-18.9-6.57-28.36,7.13-1,7.11-1,8.35,5.65.92,4.95,1.91,9.89,3,15.24,1.4-2.32,1.36-4.68,1.86-6.85.92-4,1.71-8,2.37-12.09.28-1.73.93-2.28,2.71-2.25,5,.07,5,0,6,4.92,1.11,5.39,2.14,10.79,3.68,16.27l2.73-13.17c.2-1,.4-2,.59-3,1-5.13,1-5.08,6.29-5,1.47,0,2,.3,1.59,1.87q-3.71,15.22-7.3,30.48a1.59,1.59,0,0,1-1.71,1.4c-6,.52-6,.55-7.39-5.47-.91-4-1.86-7.95-2.79-11.92Z"/><path class="cls-1" d="M732.06,329.87c0-4.77.1-9.54,0-14.31-.07-2,.66-2.86,2.5-2.32,1.64.48,4-1.55,4.93,1.34.34-.14.69-.27,1-.42A8.84,8.84,0,0,1,751,316c1.15,1.1,1.64.74,2.62-.06,3.38-2.77,7.12-3.63,11.19-1.56s6.4,5.31,6.39,10c0,6.73-.07,13.46,0,20.2,0,1.78-.39,2.38-2.28,2.35-4.63-.09-4.64,0-4.64-4.72,0-5.14,0-10.29,0-15.43a19.71,19.71,0,0,0-.2-3.07c-.46-2.94-2-4.38-4.58-4.28a4.67,4.67,0,0,0-4.5,4.8c-.1,4.67,0,9.35,0,14v4.2c0,4.47,0,4.38-4.59,4.46-1.8,0-2.36-.42-2.33-2.29.12-6.54,0-13.09.06-19.64,0-2.09-.48-3.91-2.44-5-3.12-1.72-6.43.16-6.44,3.72,0,6.92,0,13.84.19,20.75,0,2-.49,2.5-2.45,2.45-5-.11-5,0-5-5Z"/><path class="cls-1" d="M506.18,253.08c.18-2.37.28-4.42-.68-6.34a4.61,4.61,0,0,0-4.31-2.62c-1.79-.05-3.62.32-4.17,2.14-.8,2.66-2.63,2.6-4.76,2.57-5.13-.07-5.71-1-3.23-5.68,2.91-5.45,9.14-8,15.93-6.42a12.34,12.34,0,0,1,9.67,12.2c.1,8.23,0,16.46.06,24.7,0,1.44-.4,2.19-1.89,1.88-2.23-.47-4.75,1.1-6.8-.95-.1-.1-.88.55-1.38.76C496.35,278.71,487,273,486.25,266c-.68-6.39,5-13.06,12-13.8A22.47,22.47,0,0,1,506.18,253.08Zm-5.67,5.58c-3,0-6.38,2.91-6.43,5.55s3.23,5,6.45,5,5.78-2.47,5.75-5.29A5.61,5.61,0,0,0,500.51,258.66Z"/><path class="cls-1" d="M405.55,255.77c0,5.7-.11,11.41.06,17.11.07,2.3-.71,2.93-2.84,2.71-1.57-.17-3.68.59-4.66-.19-2.24-1.78-4-.18-5.93.08-7.61,1-13.72-4-13.89-11.74-.19-8.69,0-17.38-.1-26.08,0-1.44.41-1.89,1.89-1.94,6.51-.24,6.5-.29,6.51,6.05,0,6.82,0,13.65.05,20.47.06,3.67,1.72,5.6,4.69,5.93,3.41.37,5.44-1.29,5.46-4.72.06-8.31.11-16.63,0-24.95,0-2.25.63-2.83,2.82-2.79,6,.1,6,0,6,6Z"/><path class="cls-1" d="M410.56,255.62c0-5.8.11-11.6-.06-17.4-.06-2.19.7-3,2.7-2.48s4.7-1.41,6.23,1.46a12.91,12.91,0,0,0,1.48-.57c8.21-3.15,16.3,1.78,16.65,10.55s.09,17.76.16,26.65c0,1.38-.51,1.8-1.81,1.71a20.11,20.11,0,0,0-3.64,0c-2.14.26-2.9-.42-2.85-2.72.16-7,.06-14,.05-21a30.09,30.09,0,0,0-.18-3.92,5.11,5.11,0,0,0-5.81-4.78c-3.1.22-4.4,1.71-4.39,5.26,0,8.23,0,16.46.19,24.69,0,1.9-.39,2.56-2.43,2.54-6.29-.06-6.29,0-6.29-6.21Z"/><path class="cls-1" d="M587.35,255.48c0-5.9,0-11.79,0-17.68,0-1.5.34-2.49,2-2.07,2.25.57,5-1.4,6.85,1.35.35.52,1-.24,1.44-.42,8.32-3.16,16.27,1.49,16.74,10.39s.16,17.95.19,26.93c0,.28.07.71-.08.82-2.16,1.61-4.62.45-6.94.68-1.71.17-1.2-1.34-1.2-2.23,0-7.49,0-15,0-22.46a10.93,10.93,0,0,0-.52-4.42,5.29,5.29,0,0,0-6.15-3.18c-2.65.49-3.74,2.11-3.71,4.76.1,8.33.06,16.65.23,25,0,2.05-.43,2.7-2.59,2.66-6.19-.12-6.2,0-6.19-6.08v-14Z"/><path class="cls-1" d="M583.2,256.61c0,2.53.06,5.06,0,7.58a12.22,12.22,0,0,1-11.39,12c-10,.85-15.58-4.28-15.6-14.34,0-4.22-.05-8.43,0-12.64.13-7.82,5.51-12.91,13.55-12.89s13.34,5.09,13.45,13c0,2.44,0,4.87,0,7.3Zm-18.56-.79h0v7a7.73,7.73,0,0,0,0,.84c.4,3,2.31,4.91,5.09,5s4.85-1.75,5-4.93c.19-4.94.2-9.9,0-14.84-.12-3.29-2.16-5.08-5.17-5.07-2.81,0-4.66,1.79-4.89,5C564.5,251.15,564.64,253.49,564.64,255.82Z"/><path class="cls-1" d="M272.51,256.34c0,2.62.14,5.24,0,7.85a12.64,12.64,0,0,1-9.79,11.86c-7.06,1.47-14-.93-15.81-6.88a42.41,42.41,0,0,1,.08-25.85c1.84-5.62,8.38-7.94,15.13-6.74a12.19,12.19,0,0,1,10.27,11.07c.28,2.87.05,5.79.05,8.69Zm-8.38-.1H264a67.94,67.94,0,0,0-.06-7.82c-.37-3.1-2.26-4.63-5-4.66s-4.49,1.46-4.91,4.7a66.22,66.22,0,0,0,0,15.09c.34,3.45,2.33,5.14,5.22,5.1s4.63-1.89,4.92-5.4C264.28,260.93,264.13,258.58,264.13,256.24Z"/><path class="cls-1" d="M464.28,257.35c.06,1.41,0,3.95.32,6.45.37,3.22,2.22,4.83,5.14,4.79s4.36-1.46,4.86-4.71c.69-4.52.7-4.31,5.31-4.59,2.94-.17,3.35,1,3.25,3.52-.24,6.21-3.21,11-8.29,12.75-6,2.11-12.38.54-16.09-4a10.61,10.61,0,0,1-2.59-6.37,148.47,148.47,0,0,1,0-17.65c.45-6.41,5.68-11,12.51-11.23,7.38-.26,12.9,3.73,14,10.16s-.31,7.84-6.88,6.69c-1-.18-1.11-.68-1.17-1.49a25.08,25.08,0,0,0-.47-3.88c-.68-2.87-2.42-4.14-5.23-4s-4,1.76-4.41,4.26C464.14,250.82,464.41,253.53,464.28,257.35Z"/><path class="cls-1" d="M623.68,265.79c2.11,0,4-.25,5.59,2,1.31,1.91,3.85,1.71,5.9.62a4.21,4.21,0,0,0,2.41-4.65c-.41-2.46-2.2-3.3-4.42-3.54l-3.63-.36c-4.5-.5-8.09-2.54-9.85-6.81-1.81-4.42-1-8.63,2.11-12.3,6.36-7.57,19.85-5.37,23.26,3.74.72,1.92.69,3.06-1.84,2.8a24.57,24.57,0,0,0-3.64,0,3.29,3.29,0,0,1-3.46-1.61c-1.48-2.32-5.41-2.51-7.49-.66a4.29,4.29,0,0,0-1.43,4.3,3.72,3.72,0,0,0,2.93,3.05,31.4,31.4,0,0,0,4.44.61c5.43.44,9.62,3.42,10.9,7.79A12.25,12.25,0,0,1,641,274c-6.7,5.26-17.81,2.62-21-5-1.33-3.13-1.26-3.25,2-3.26Z"/><path class="cls-1" d="M787.43,200.85c-3.7,1.12-7.48.32-11.22.41-1,0-.84-1.06-.84-1.76,0-17.54,0-35.07,0-52.61,0-1.4.59-1.74,1.85-1.71,3.26.09,6.52.09,9.79.13q0,26.15,0,52.3C787,198.69,786.63,199.86,787.43,200.85Z"/><path class="cls-1" d="M781.4,248.61c0-8.13.08-16.26,0-24.39,0-2.18.65-2.62,2.68-2.59,6.09.09,6.09,0,6.09,6.17,0,12.43,0,24.86,0,37.3,0,2,.38,2.8,2.58,2.69,4-.19,8,0,12.06-.08,1.48,0,1.87.49,1.92,1.93.22,5.89.27,5.89-5.49,5.89s-11.22-.11-16.82.06c-2.26.06-3-.45-3-2.86C781.5,264.69,781.4,256.65,781.4,248.61Z"/><path class="cls-1" d="M710.36,262c1.38-7.3,2.78-14.61,4.14-21.91.81-4.32.79-4.32,5.12-4.32a16.73,16.73,0,0,0,2.24,0c1.74-.21,2,.52,1.65,2.08q-4.35,17.94-8.6,35.91c-.34,1.44-1,1.85-2.45,1.87-6.91.07-6.92.13-8.42-6.39-2.39-10.36-4.73-20.73-7.2-31.07-.45-1.9-.12-2.41,1.87-2.42,6.4,0,6.33-.1,7.41,6.31,1.12,6.67,2.37,13.33,3.57,20Z"/><path class="cls-1" d="M825.2,334.22c0,3.65-.06,7.3,0,10.95,0,1.34-.38,1.73-1.72,1.73-3.2,0-6.37-.47-9.59.44a9.32,9.32,0,0,1-6.54-.88c-4.47-2.15-6.84-6-6-10,1-5.29,4.92-9,9.79-9.3a13.84,13.84,0,0,1,5.29.33c1.72.56,1.88-.19,1.82-1.6-.18-3.85-1.69-5.64-4.79-5.58a3.54,3.54,0,0,0-3.38,2c-.39.75-.32,2-1.65,1.94-1.86,0-3.73,0-5.58-.15-.52,0-.43-.76-.32-1.21a17.14,17.14,0,0,1,.91-3.21c2.23-4.68,7.66-7,13.34-5.79a10.57,10.57,0,0,1,8.42,10.46C825.24,327.68,825.2,331,825.2,334.22Zm-11.87,7.25c2.65,0,4.92-2.1,4.88-4.43a4.93,4.93,0,0,0-4.93-4.42c-2.63,0-5.45,2.47-5.45,4.72S810.51,341.51,813.33,341.47Z"/><path class="cls-1" d="M692.15,330.69c0-2.15-.08-4.31,0-6.45.3-6.48,4.9-10.57,11.72-10.5,6.56.06,11,4.32,11.18,10.76.07,2.53-.07,5.06,0,7.58.06,1.45-.34,1.95-1.86,1.91-3.92-.11-7.86.06-11.78-.08-1.87-.07-2.41.47-2.2,2.32.36,3.28,2.69,5.3,5.91,4.89a2.13,2.13,0,0,0,2.06-1.62c.42-2.76,2.36-2.51,4.33-2.48,3.9.06,4.18.46,2.65,4.08-2.07,4.89-7.08,7.25-13.34,6.3a10.62,10.62,0,0,1-8.69-10c-.14-2.23,0-4.48,0-6.73Zm11.44-2.33c1.32-1.18,4.49,1.82,4.43-2.27s-1.55-6.12-4.51-6.11c-2.81,0-4.16,2-4.29,6S702.19,327.32,703.59,328.36Z"/><path class="cls-1" d="M775.05,330.52c0-2.43-.18-4.87,0-7.28.54-6.07,5.19-9.68,12-9.5,6,.16,10.45,4.29,10.61,10.06.09,3.32.44,6.67-.24,10l-9.2.17a16.33,16.33,0,0,0-2.8,0c-1.16.23-2.92-.88-3.38.7a5.07,5.07,0,0,0,1.27,5c2.31,2.39,5.92,1.79,7-1.31.63-1.74,1.85-1.31,2.94-1.25,1.43.08,3.46-.82,4.15.5.83,1.57-.32,3.42-1.25,4.93-2.61,4.26-7.87,6.11-13.32,4.75a10.48,10.48,0,0,1-7.88-9.74c-.16-2.32,0-4.67,0-7Zm11.06-2.35c4.71,0,4.71,0,4.71-2.1,0-3.94-1.69-6.14-4.63-6.1s-4.21,2.16-4.28,6.09C781.84,330.16,785,327.19,786.11,328.17Z"/><path class="cls-1" d="M829.17,330c0-4.86.1-9.72,0-14.57-.06-1.91.62-2.69,2.35-2.2s3.86-1.38,5.06,1.21c.19.41.76-.2,1.15-.35,7.72-2.91,14.34,1.53,14.44,9.76.08,6.92,0,13.84.06,20.75,0,1.82-.44,2.35-2.29,2.31-4.57-.09-4.57,0-4.58-4.47,0-5.8.07-11.59,0-17.38-.08-4.14-2.19-6.09-5.61-5.54-2.36.38-3.32,1.76-3.29,4.08.07,7,0,14,.19,21,0,1.89-.54,2.3-2.33,2.28-5.07-.06-5.08,0-5.08-5.13Z"/><path class="cls-1" d="M523.19,257c0-3.37-.06-6.74,0-10.1,0-1.52-.12-2.62-2.05-2.3-1.62.27-2.18-.49-2-2a16,16,0,0,0,0-3.09c-.17-1.62.27-2.54,2.1-2.23s2-.68,2-2.13c.1-5.19.15-5,5.34-5.24,2.55-.11,3.4.67,3,3.1-.1.64.06,1.32,0,2-.26,1.85.48,2.44,2.33,2.37,1.19-.05,3.14-.82,3.52.62a13.24,13.24,0,0,1,0,6.1c-.26,1.18-2,.62-3,.54-2.1-.17-2.91.39-2.84,2.71.18,6,0,12,.07,18,0,3.21.69,4,3.93,4,1.84,0,2.12.71,2.12,2.32,0,5.53.08,5.53-5.45,4.61-6.88-1.13-9-3.57-9-10.48C523.18,262.84,523.19,259.94,523.19,257Z"/><path class="cls-1" d="M812.84,257.44c0-3.55-.05-7.1,0-10.65,0-1.4-.11-2.45-1.89-2.15s-2.36-.49-2.17-2.18a12.48,12.48,0,0,0,0-2.8c-.16-1.69.23-2.73,2.22-2.39s1.81-.92,1.83-2.23c.08-5.08.12-4.89,5.11-5.15,2.84-.14,3.45.82,3.3,3.44-.23,3.83-.06,3.94,3.69,3.9,1.7,0,2.48.44,2.22,2.2a8.34,8.34,0,0,0,0,1.12c0,3.95,0,4-3.93,4-1.59,0-2.09.45-2.07,2.05q.14,9.39,0,18.78c0,2.73,1.09,4.14,3.8,3.88,2.08-.19,2.22.84,2.22,2.47,0,5.34.06,5.34-5.34,4.45-7-1.16-9-3.51-9-10.66Z"/><path class="cls-1" d="M731.8,257.71c0-3.74,0-7.48,0-11.22,0-1.22-.23-2.08-1.67-1.84-2.24.37-2.79-.71-2.55-2.7a17.6,17.6,0,0,0,0-3.08c-.08-1.23.47-1.77,1.65-1.58,2.22.35,2.62-.72,2.58-2.71-.09-4.61,0-4.47,4.74-4.67,2.55-.11,3.66.36,3.46,3.26-.28,4-.06,4.11,3.86,4.05,1.81,0,2.35.6,2.12,2.26a9.33,9.33,0,0,0,0,1.4c0,3.69,0,3.78-3.65,3.72-1.74,0-2.48.33-2.44,2.29.13,6.07,0,12.15.06,18.23,0,3.36.71,4.14,4.13,4.18,1.72,0,1.91.73,1.93,2.17.07,5.66.11,5.69-5.55,4.72-5.47-.93-9.17-3-8.72-10.06C732,263.34,731.8,260.52,731.8,257.71Z"/><path class="cls-1" d="M888.8,326.82c0-5.8,0-11.59,0-17.39,0-1.75-.36-2.7-2.3-2.39a9.35,9.35,0,0,1-1.4,0c-3.09,0-4.31-1.88-3.32-4.94.29-.91.91-.79,1.52-.79q9.12,0,18.23,0c3,0,1.3,2.29,1.61,3.52s.15,2.23-1.74,2.27c-5.29.13-5.29.23-5.29,5.5,0,10.57-.06,21.13.05,31.69,0,2.08-.5,2.71-2.63,2.65-4.76-.15-4.77,0-4.77-4.69Z"/><path class="cls-1" d="M442.87,255.64c0-5.88.07-11.76,0-17.64,0-1.83.51-2.36,2.36-2.36,6.44,0,6.44-.09,6.44,6.37,0,10.36-.05,20.72,0,31.08,0,2-.56,2.5-2.51,2.49-6.29,0-6.29,0-6.29-6.22Z"/><path class="cls-1" d="M551.65,255.91c0,5.69-.07,11.39,0,17.08,0,1.83-.31,2.61-2.4,2.6-6.4,0-6.4.06-6.4-6.41,0-10.27.05-20.54,0-30.8,0-1.95.3-2.79,2.55-2.76,6.25.1,6.25,0,6.25,6.29Z"/><path class="cls-1" d="M875.83,324.15c0,6.72-.07,13.45,0,20.17,0,2.15-.48,2.66-2,2.61-3.62-.12-3.63,0-3.63-4.65,0-12.8,0-25.6,0-38.39,0-2.14.46-2.68,2-2.62,3.63.14,3.64,0,3.64,4.94Z"/><path class="cls-1" d="M920.39,317.15c0-4.66.06-9.33,0-14,0-1.48.43-1.86,1.9-1.88,5.44-.09,5.44-.16,5.44,5.36,0,7.92-.05,15.85,0,23.78,0,1.83-.27,2.61-2.37,2.57-5-.11-5,0-5-4.93Z"/><path class="cls-1" d="M939.77,317.38c0,4.48,0,9,0,13.44,0,1.42-.13,2.14-1.89,2.16-5.44.06-5.44.15-5.44-5.34,0-8,.06-16.05-.05-24.08,0-1.89.56-2.32,2.36-2.28,5,.08,5,0,5,4.9Z"/><path class="cls-1" d="M944.69,317.16c0-4.67,0-9.33,0-14,0-1.44.37-1.87,1.86-1.88,5.48-.07,5.47-.13,5.47,5.3,0,8-.06,16.06,0,24.08,0,1.88-.54,2.33-2.35,2.31-5-.05-5,0-5-4.89Z"/><path class="cls-1" d="M775.35,131.4c0-6.21,0-6.21,6-6.14,6.19.07,6.19.07,6.19,6.36,0,6.7,0,6.7-6.63,6.7-5.61,0-5.61,0-5.61-5.52Z"/><path class="cls-1" d="M761,271c0,4.56,0,4.56-4.55,4.56-4.19,0-4.19,0-4.19-4.06,0-5.18,0-5.18,5-5.12C761,266.4,761,266.4,761,271Z"/><path class="cls-1" d="M551.65,226.3c0,4.54,0,4.54-4.57,4.54-.75,0-1.5-.05-2.24,0-1.41.12-2.14-.37-2-1.88a10.89,10.89,0,0,0,0-1.4c0-6,0-5.88,6-5.95,2.09,0,3.22.39,2.82,2.72A12.81,12.81,0,0,0,551.65,226.3Z"/><path class="cls-1" d="M451.63,226.39c0,4.45,0,4.45-4.4,4.45s-4.36,0-4.36-4.48c0-4.73,0-4.73,4.64-4.7a8.17,8.17,0,0,0,1.4,0c2.26-.38,3,.62,2.73,2.78A14.24,14.24,0,0,0,451.63,226.39Z"/><path class="cls-1" d="M874.54,271c0,4.56,0,4.56-4.52,4.56-.84,0-1.69,0-2.52,0-1.21.09-1.73-.42-1.66-1.61,0-.47,0-.94,0-1.4,0-6.22,0-6.12,6.09-6.16,2.06,0,3,.48,2.62,2.63A12.82,12.82,0,0,0,874.54,271Z"/><path class="cls-1" d="M927.7,343.31c0,3.56,0,3.56-4.08,3.56-3.23,0-3.23,0-3.23-4.37,0-3.34,0-3.36,4.05-3.33C928.24,339.2,927.64,338.64,927.7,343.31Z"/><path class="cls-1" d="M936.29,346.87c-3.82,0-3.85,0-3.81-4.36,0-3.89-.62-3.3,4-3.34,3.25,0,3.25,0,3.24,4.7C939.77,346.87,939.77,346.87,936.29,346.87Z"/><path class="cls-1" d="M952,343.18c0,3.69,0,3.37-4.21,3.78s-3.07-2.22-3.09-4.32c0-3.48,0-3.48,3.9-3.48C952,339.16,952,339.16,952,343.18Z"/><path class="cls-1" d="M322.05,275.42q0-14.94.08-29.88a4.33,4.33,0,0,1,.51,2.68q0,12.81,0,25.6C322.63,274.37,323,275.17,322.05,275.42Z"/><path class="cls-1" d="M190.23,57.88q-1.77-10.52-3.15-21.07a15.81,15.81,0,0,0-2.79-6.89c-6.06-9.11-12-18.26-18.06-27.4-2.06-3.13-2.06-3.14-5.41-1.16Q83.95,46.81,7.09,92.27C4.61,93.74.73,94.59.12,97s1.46,5.6,2.2,8.49c.44,1.76,1,1.7,2.37.77,3.53-2.32,6.34-1.34,8.07,2.54,1.35,3,.7,5.5-2,7.66-.73.58-2,.82-1.09,2.3,5.17,8.66,8.89,18.36,18.57,23.59,3.75,2,7,5,10.45,7.55,4.3,3.16,4.35,3.25,8.91.3,1.51-1,2.13-.69,3,.66,2.3,3.41,4.84,6.66,7.11,10.09a11,11,0,0,0,4.49,3.62c1.52.81,1.68.15,1.73-1.18.17-4.14.08-8.17-2.5-11.78-1.23-1.73-2-3.81-3.1-5.64-.86-1.41-.75-2.18.78-3.06,3.4-2,6.74-4.05,9.95-6.29,1.54-1.07,2.18-.58,3,.71,2.32,3.4,4.8,6.69,7.13,10.08,1.41,2,3.42,2.95,5.69,3.63.57-5.1.4-9.84-2.68-14.08-1.09-1.5-1.75-3.3-2.71-4.91-.65-1.1-.53-1.73.63-2.43,3.53-2.12,7-4.3,10.43-6.59,1.35-.91,2-.64,2.89.61,2.22,3.24,4.64,6.35,6.79,9.63,1.16,1.78,2.92,2.55,4.62,3.47,1.13.61,1.45.06,1.46-1.06,0-4,.37-8-2.3-11.55-1.28-1.7-2-3.79-3.11-5.64-.68-1.14-.45-1.72.67-2.4q5.28-3.19,10.43-6.59c1.29-.86,2-.81,2.91.55,2,3,4.22,5.73,6.13,8.72,1.5,2.36,3.72,3.41,6.28,4.48.27-5,.61-9.59-2.46-13.68-1-1.33-1.53-3-2.42-4.42-.75-1.23-.56-1.92.69-2.66,2.81-1.67,5.59-3.4,8.28-5.26,1.31-.91,1.87-.45,2.62.65,2,2.85,4.12,5.57,6,8.47,1.48,2.28,3.62,3.27,6,4.09.66-5.2.34-10-2.81-14.32-.66-.89-1-2-1.62-2.94-.93-1.34-.52-2.07.78-2.86,3.76-2.27,7.49-4.6,11.14-7,1.26-.84,1.84-.58,2.61.57,1.88,2.79,4,5.41,5.8,8.26,1.54,2.46,3.77,3.74,6.45,4.81a19.19,19.19,0,0,0-3-14.9c-.63-.91-1-2-1.63-2.93-.81-1.22-.56-1.93.68-2.67,3.29-2,6.54-4,9.73-6.14,1.21-.81,1.83-.68,2.64.54,1.75,2.65,3.76,5.13,5.48,7.8,1.15,1.77,2.86,2.6,4.59,3.52,1,.54,1.53.43,1.52-.88,0-3.89.22-7.67-2-11.33-3.23-5.23-3-5.43,2.26-8.7C190,60.36,190.53,59.61,190.23,57.88ZM51.93,144.3c-3.72-1.25-7.08-2.49-8.83-6.14a23,23,0,0,0-1.86-2.8c-3.83-5.57-3.61-6.29,2.57-9.08.89-.4,1.31-.25,1.79.52,2.1,3.43,4.37,6.76,6.33,10.26C53.19,139.32,51.91,141.76,51.93,144.3Zm20.33-12.08c-4-1.17-7.3-2.77-9.11-6.52a19.6,19.6,0,0,0-1.56-2.32c-4-5.85-4-5.81,2.37-9.06,1-.51,1.44-.4,2,.49,2.08,3.41,4.36,6.72,6.28,10.23C73.45,127.28,72.29,129.74,72.26,132.22Zm24.13-18.31c-.15,4.25-.13,4.19-4,2.59A8.41,8.41,0,0,1,88,112.86c-.83-1.46-1.94-2.75-2.79-4.19-1-1.65-3.49-3.42-2.71-4.81,1-1.8,3.63-2.7,5.56-4,.91-.62,1.32,0,1.74.65q3.11,5,6.23,10C96.77,111.63,96.32,112.85,96.39,113.91Zm20.23-8.31c-5.82-.55-8.27-4.66-10.91-8.65-3.62-5.5-3.67-5.41,2-8.83,1.26-.75,1.84-.68,2.59.61,1.84,3.13,3.81,6.18,5.75,9.25C117.64,100.47,116.1,103.08,116.62,105.6Zm19.93-11.91c-3.43-1.15-6.67-2.29-8.53-5.8a50.35,50.35,0,0,0-4.57-6.72c-1-1.25-.61-1.79.57-2.59,5.45-3.68,5.42-3.72,9,1.93a20,20,0,0,0,1.81,2.83C137.56,86.4,137.36,89.91,136.55,93.69Zm21.56-19c-.13,4.42-.09,4.31-3.76,2.87a8.85,8.85,0,0,1-4.8-4c-.73-1.29-1.67-2.46-2.51-3.69-3.55-5.2-3.51-5.14,1.7-8.49,1.52-1,2.28-1,3.19.69,1.43,2.61,3.07,5.11,4.7,7.59C157.74,71.34,158.68,73,158.11,74.66ZM129.35,63,25.8,124.1c-3.24,1.92-3.24,1.91-5.25-1.43a8.47,8.47,0,0,0-.72-1.2c-1.26-1.44-.79-2.23.78-3.13,9.08-5.2,18.1-10.5,27.14-15.77q62-36.15,124-72.27c.87-.5,1.89-1.95,2.88-.92a28.86,28.86,0,0,1,3,4.65c-.47,1-1.44,1.27-2.2,1.72Q152.42,49.39,129.35,63Zm49.59-1.9c-.16,4.36-.12,4.28-3.77,2.8a8.87,8.87,0,0,1-4.77-4,43,43,0,0,0-2.51-3.7c-3.87-5.63-3.77-5.89,2.5-8.9,1-.49,1.48-.28,2,.58,2,3.33,4.14,6.64,6.22,9.95C179.33,58.93,178.84,60.17,178.94,61.08Z"/></g></g></svg>